<svg xmlns="http://www.w3.org/2000/svg" width="55" height="55" viewBox="0 0 55 55">
  <path id="Subtraction_2" data-name="Subtraction 2" d="M27.5,55A27.507,27.507,0,0,1,16.8,2.161,27.507,27.507,0,0,1,38.2,52.839,27.328,27.328,0,0,1,27.5,55Zm-.442-42.672c-3.983,0-4.5.017-6.071.091a10.89,10.89,0,0,0-3.577.686A7.087,7.087,0,0,0,14.8,14.8a7.25,7.25,0,0,0-1.7,2.611,10.959,10.959,0,0,0-.686,3.577c-.073,1.566-.09,2.087-.09,6.07s.017,4.5.09,6.071a10.9,10.9,0,0,0,.686,3.577,7.182,7.182,0,0,0,1.7,2.6,7.269,7.269,0,0,0,2.611,1.7,10.989,10.989,0,0,0,3.577.685c1.579.074,2.1.091,6.071.091s4.491-.017,6.071-.091a10.922,10.922,0,0,0,3.577-.685,7.2,7.2,0,0,0,2.6-1.7,7.271,7.271,0,0,0,1.7-2.611A10.984,10.984,0,0,0,41.7,33.12c.074-1.581.091-2.1.091-6.07s-.017-4.49-.091-6.071a10.929,10.929,0,0,0-.685-3.578,7.186,7.186,0,0,0-1.7-2.6A7.266,7.266,0,0,0,36.7,13.1a10.958,10.958,0,0,0-3.577-.686C31.544,12.345,31.02,12.328,27.058,12.328Zm0,26.8c-4,0-4.416-.014-5.95-.086a8.1,8.1,0,0,1-2.735-.509,4.873,4.873,0,0,1-2.792-2.791A8.146,8.146,0,0,1,15.071,33c-.071-1.6-.086-2.072-.086-5.949,0-4,.014-4.415.086-5.95a8.066,8.066,0,0,1,.51-2.735,4.868,4.868,0,0,1,2.792-2.792,8.142,8.142,0,0,1,2.735-.509c1.536-.073,1.951-.086,5.95-.086s4.414.014,5.949.086a8.067,8.067,0,0,1,2.736.509,4.874,4.874,0,0,1,2.792,2.792,8.178,8.178,0,0,1,.509,2.735c.071,1.6.086,2.071.086,5.95,0,4-.014,4.414-.086,5.949a8.1,8.1,0,0,1-.509,2.736,4.879,4.879,0,0,1-2.792,2.791,8.174,8.174,0,0,1-2.736.509C31.41,39.111,30.936,39.126,27.058,39.126Zm0-19.636a7.564,7.564,0,1,0,7.563,7.564A7.573,7.573,0,0,0,27.058,19.49Zm7.861-2.066a1.769,1.769,0,1,0,1.769,1.768A1.771,1.771,0,0,0,34.919,17.424Zm-7.861,14.54a4.91,4.91,0,1,1,4.91-4.91A4.915,4.915,0,0,1,27.058,31.964Z"/>
</svg>
