<svg xmlns="http://www.w3.org/2000/svg" xmlns:xlink="http://www.w3.org/1999/xlink" width="112.143" height="63.375" viewBox="0 0 112.143 63.375">
  <defs>
    <clipPath id="clip-path">
      <path id="Path_33855" data-name="Path 33855" d="M375.105,595.995c2.383-.749,3.76.477,4.934.775-2.982,1.787-3.366,4.627-7.722,9.946-5.185,6.319-14.46,8.439-22.185,6.77-9.544-2.059-11.831-9.041-17.133-10.79,2.38,2.215,2.935,3.248,4.512,7.459,1.839,4.917,5.909,12.6,16.065,14.79a22.422,22.422,0,0,0,24.438-10.961c3.375-6.013,2.849-13.153,6.608-16.089.908-.709,3.158-1.646,3.881-2.987-1.544,1.093-3.841.648-6.177.2a20.469,20.469,0,0,0-3.7-.48,4.421,4.421,0,0,0-3.523,1.365" transform="translate(-333 -594.63)" fill="none"/>
    </clipPath>
    <linearGradient id="linear-gradient" x1="-0.553" y1="9.512" x2="-0.548" y2="9.512" gradientUnits="objectBoundingBox">
      <stop offset="0" stop-color="#c6168d"/>
      <stop offset="0.25" stop-color="#d80b8c"/>
      <stop offset="0.5" stop-color="#ee3d96"/>
      <stop offset="0.75" stop-color="#faa61a"/>
      <stop offset="1" stop-color="#ffc20e"/>
    </linearGradient>
  </defs>
  <g id="amazing-thailand-logo-vector" transform="translate(0)" style="mix-blend-mode: luminosity;isolation: isolate">
    <path id="Path_33843" data-name="Path 33843" d="M493.2,500.7a2.455,2.455,0,0,0-1.4-.642c-1.044-.194-3.054-.075-3.054-.555,0-.356.538-.6.639-.633a2.7,2.7,0,0,0,3.485-2.473,2.374,2.374,0,0,0-.359-1.3,1.35,1.35,0,0,0,.732-1.469,1.642,1.642,0,0,1-1.316.46h-.523a2.458,2.458,0,0,0-1.18-.289,2.661,2.661,0,0,0-2.719,2.6,2.563,2.563,0,0,0,1.111,2.077c-.523.408-.963.775-.963,1.313a.98.98,0,0,0,.321.732c.868.778,2.834.4,4.072.772.691.194.694.521.694.628a.578.578,0,0,1-.231.448,3.2,3.2,0,0,1-2.134.668c-1.339,0-2.039-.477-2.039-.882s.379-.68,1.157-.61a1.576,1.576,0,0,0-1.076-.512,1.365,1.365,0,0,0-1.371,1.377c0,.578.532,1.611,2.892,1.611,2.166,0,3.653-1.111,3.653-2.276a1.585,1.585,0,0,0-.411-1.064m-2.967-6.079c.758,0,1.4.743,1.4,1.8a1.6,1.6,0,0,1-1.4,1.758,1.578,1.578,0,0,1-1.394-1.758c0-1.093.654-1.8,1.394-1.8" transform="translate(-411.778 -490.322)" fill="#ed2891"/>
    <path id="Path_33844" data-name="Path 33844" d="M337.683,500.634c-.668.486-.749-.038-.749-.234v-3.91c0-1.469-.845-2.241-2.432-2.241a3.531,3.531,0,0,0-2.672,1.157l-.087.107.364.275.072-.066a3.245,3.245,0,0,1,1.851-.68c.538,0,1.648.312,1.648,1.278v.486c-1.319.26-4.049.807-4.049,2.831a1.875,1.875,0,0,0,2.024,1.874,2.343,2.343,0,0,0,1.782-.957v-.732l-.217.173a1.668,1.668,0,0,1-1.119.437,1.038,1.038,0,0,1-1.139-1.079c0-.79,1.012-1.4,2.719-1.735v2.493c0,1.157.495,1.351.8,1.351a2.063,2.063,0,0,0,1.157-.555l.147-.116Z" transform="translate(-301.306 -490.761)" fill="#ed2891"/>
    <path id="Path_33845" data-name="Path 33845" d="M403.813,500.634c-.668.486-.749-.038-.749-.234v-3.91c0-1.469-.842-2.241-2.429-2.241a3.5,3.5,0,0,0-2.672,1.157l-.09.107.364.275.069-.066a3.259,3.259,0,0,1,1.851-.68c.541,0,1.651.312,1.651,1.278v.486c-1.316.26-4.049.807-4.049,2.831a1.875,1.875,0,0,0,2.024,1.874,2.342,2.342,0,0,0,1.779-.957v-.732l-.211.174a1.7,1.7,0,0,1-1.125.437,1.039,1.039,0,0,1-1.139-1.079c0-.79,1.009-1.4,2.719-1.735v2.493c0,1.157.5,1.351.8,1.351a2.055,2.055,0,0,0,1.157-.555l.153-.116Z" transform="translate(-348.311 -490.76)" fill="#ed2891"/>
    <path id="Path_33846" data-name="Path 33846" d="M450.1,482.19c-.2.558-.847.853-.847,1.513,0,.578.847.9.847,1.157,0-.249.847-.578.847-1.157,0-.659-.651-.954-.847-1.513" transform="translate(-384.91 -482.19)" fill="#ed2891"/>
    <path id="Path_33847" data-name="Path 33847" d="M461.36,494.312v.359h.289a.321.321,0,0,1,.318.321v6.478h1.313v-4.407c0-.515.457-1.767,1.565-1.767.868,0,1.3.509,1.3,1.562v4.627h1.929v-.373h-.289a.321.321,0,0,1-.321-.327v-3.994c0-1.232-.561-2.551-2.082-2.551a2.721,2.721,0,0,0-2.137,1.1v-1.027Z" transform="translate(-393.518 -490.755)" fill="#ed2891"/>
    <path id="Path_33848" data-name="Path 33848" d="M448.8,501.648h1.926v-.359h-.289a.321.321,0,0,1-.321-.327V494.49h-.5L448.17,495v.315h.3a.324.324,0,0,1,.324.324Z" transform="translate(-384.142 -490.933)" fill="#ed2891"/>
    <path id="Path_33849" data-name="Path 33849" d="M428.867,500.057l-.046.09a1.072,1.072,0,0,1-1.157.642H424.83l3.844-5.674v-.625h-5.058L423.294,496l.289.067.043-.084a1.074,1.074,0,0,1,1.157-.645h2.253L423.19,501v.651h5.637l.324-1.518Z" transform="translate(-366.387 -490.933)" fill="#ed2891"/>
    <path id="Path_33850" data-name="Path 33850" d="M366.63,501.109a.321.321,0,0,1-.321-.327v-3.994c0-1.232-.561-2.551-2.079-2.551a2.713,2.713,0,0,0-2.137,1.1,1.545,1.545,0,0,0-.168.237,1.9,1.9,0,0,0-1.877-1.336,2.626,2.626,0,0,0-2.085,1.1V494.31H356.08v.359h.289a.321.321,0,0,1,.321.321v6.475H358v-4.4c0-.515.4-1.767,1.513-1.767.868,0,1.3.509,1.3,1.562v4.627h1.322V497.06c0-.515.454-1.767,1.565-1.767.868,0,1.3.509,1.3,1.562v4.627h1.926v-.373Z" transform="translate(-318.685 -490.753)" fill="#ed2891"/>
    <path id="Path_33851" data-name="Path 33851" d="M285.873,551.958c-.709,0-.923-.552-.923-1.223V536.48h-2.684v6.759h-6.5V536.48h-2.684v14.255c0,.671-.214,1.223-.923,1.223h-.578v.486h4.188v-7.158h6.487v7.158h4.2v-.486Z" transform="translate(-258.623 -520.779)" fill="#ed2891"/>
    <path id="Path_33852" data-name="Path 33852" d="M388.19,536.48v15.964h4.191v-.486H391.8c-.709,0-.923-.552-.923-1.223V536.48Z" transform="translate(-341.509 -520.779)" fill="#ed2891"/>
    <path id="Path_33853" data-name="Path 33853" d="M418.247,548.845a4.1,4.1,0,0,1-.515.827,2.025,2.025,0,0,1-.6.492,2.313,2.313,0,0,1-.766.24,7.431,7.431,0,0,1-1.064.064h-3.76c-.642,0-.917-.217-.917-.654v-13.3h-2.678v14.255c0,.671-.214,1.223-.923,1.223h-.578v.486h11.308l.827-3.557Z" transform="translate(-354.488 -520.8)" fill="#ed2891"/>
    <path id="Path_33854" data-name="Path 33854" d="M521.149,536.57v11.513l-7.771-11.513h-2.467V550.8c0,.671-.214,1.223-.923,1.223h-.578v.486H513.6V541.18l7.664,11.328h2.551V536.57Z" transform="translate(-427.671 -520.843)" fill="#ed2891"/>
    <g id="Group_15931" data-name="Group 15931" transform="translate(30.72 32.518)" clip-path="url(#clip-path)">
      <rect id="Rectangle_24746" data-name="Rectangle 24746" width="55.504" height="32.779" transform="translate(0 0)" fill="url(#linear-gradient)"/>
    </g>
    <path id="Path_33856" data-name="Path 33856" d="M344.146,539.914l1.622,4.049a7.289,7.289,0,0,1,3.311.821l-3.436-8.234H343.7l-3.378,8.228a6.128,6.128,0,0,1,2.166-.691Z" transform="translate(-307.483 -520.829)" fill="#ed2891"/>
    <path id="Path_33857" data-name="Path 33857" d="M466.256,539.914l1.622,4.049a7.3,7.3,0,0,1,3.311.821l-3.436-8.234h-1.938l-3.387,8.228a6.108,6.108,0,0,1,2.166-.691Z" transform="translate(-394.278 -520.829)" fill="#ed2891"/>
    <path id="Path_33858" data-name="Path 33858" d="M239.441,536.48H226.933l-.153,3.447h.353a2.678,2.678,0,0,1,.535-1.327,2.129,2.129,0,0,1,1.307-.344h2.872v14.188h4.208v-.486h-.578c-.709,0-.923-.552-.923-1.223V538.256h2.82a1.994,1.994,0,0,1,1.22.312,2.948,2.948,0,0,1,.578,1.359h.4Z" transform="translate(-226.78 -520.779)" fill="#ed2891"/>
    <path id="Path_33859" data-name="Path 33859" d="M568.991,536.6c2.47,0,9,.486,9,8,0,7.678-6.981,7.93-9.665,7.93H563.12v-.486h.578c.709,0,.923-.552.923-1.223V536.6Zm-1.6,1.735v12.517h.561a8.3,8.3,0,0,0,5.593-1.735c1.472-1.267,1.625-3.537,1.625-4.512a6.383,6.383,0,0,0-1.617-4.515c-1.466-1.449-4.032-1.735-5.1-1.735Z" transform="translate(-465.848 -520.864)" fill="#ed2891"/>
    <path id="Path_33860" data-name="Path 33860" d="M335.275,567.253a2.659,2.659,0,0,1,2.892,2.062l.63,2.007a2.99,2.99,0,0,0,1.917,1.863,6.976,6.976,0,0,0,2.024.254h.752v-.477c-.836,0-1.446-.344-1.941-1.764l-.914-2.716c-.645-1.917-2.314-2.452-5.347-2.452s-4.7.535-5.347,2.452l-.914,2.716c-.5,1.42-1.1,1.764-1.938,1.764v.48h.749a7,7,0,0,0,2.024-.254,2.987,2.987,0,0,0,1.915-1.862l.63-2.007a2.651,2.651,0,0,1,2.892-2.062" transform="translate(-298.079 -541.783)" fill="#ffc20e"/>
    <path id="Path_33861" data-name="Path 33861" d="M457.356,567.253a2.66,2.66,0,0,1,2.892,2.062l.633,2.007a2.987,2.987,0,0,0,1.914,1.863,7,7,0,0,0,2.024.254h.749v-.477c-.836,0-1.446-.344-1.938-1.764l-.925-2.716c-.648-1.917-2.314-2.452-5.347-2.452s-4.7.535-5.347,2.452L451.1,571.2c-.5,1.42-1.1,1.764-1.938,1.764v.48h.749a7,7,0,0,0,2.024-.254,2.993,2.993,0,0,0,1.915-1.862l.63-2.007a2.65,2.65,0,0,1,2.892-2.062" transform="translate(-384.846 -541.783)" fill="#ffc20e"/>
  </g>
</svg>
