<svg xmlns="http://www.w3.org/2000/svg" width="145.983" height="49.999" viewBox="0 0 145.983 49.999">
  <g id="Ola_Cabs_logo" transform="translate(-0.001 0.001)" opacity="0.74" style="mix-blend-mode: luminosity;isolation: isolate">
    <path id="Path_33866" data-name="Path 33866" d="M128.817,23.411l-9.31,16.039-7.943.031L128.817,9.292l17.188,30.188h-8.069l-9.12-16.072ZM103.749,32.5h8.9l-4.13,6.982h-11.6l.031-8.5V9.478h6.831L103.75,32.5ZM79.35,9.48A15.157,15.157,0,0,1,94.664,24.494a15.35,15.35,0,0,1-30.691-.061A15.2,15.2,0,0,1,79.35,9.48Zm-.031,22.989a7.992,7.992,0,1,0-8.166-8,8.075,8.075,0,0,0,8.166,8ZM51.328,22.111a22.358,22.358,0,0,0-.89-4.467A22.656,22.656,0,0,0,45.45,8.863a27.522,27.522,0,0,0-4.609-3.94q-2.327-1.149-4.574-2.451A18.684,18.684,0,0,0,32.551.734,26.846,26.846,0,0,0,26.927.022a24.728,24.728,0,0,0-5.464.434c-1.875.31-3.432.805-5.5,1.3A28.3,28.3,0,0,0,4.559,10.85C-6.307,26.02,3.511,47.273,21.653,49.784a24.564,24.564,0,0,0,8.8-.4l2-.527a.591.591,0,0,1,.222-.063l2.289-.868c.126-.063.222-.094.349-.156l.953-.434a26.094,26.094,0,0,0,5.115-3.319,29.221,29.221,0,0,1-4.638,3.443l.094.063c.319-.094.6-.187.922-.249,0,0,0,.5-.063.4-.508.373.286.031,1.3-.5a15.987,15.987,0,0,0,2.891-1.924,31.594,31.594,0,0,0,4.067-4.187c1.652-2.886,3.718-5.4,4.671-8.781A20.234,20.234,0,0,0,51.742,25.9a25.551,25.551,0,0,0-.414-3.784Zm-23.511,25.5c5.56-.87,10.23-3.94,14.043-8.129,1.049-1.521,1.875-2.918,2.891-4.437,1.271-3.1,1.177-5.864,1.589-7.817.51-3.539-.7-6.392-1.714-9.433A16.265,16.265,0,0,0,37.38,9.577c-9.151-5.647-21.6-4.066-27.546,4.374a4.228,4.228,0,0,0-.51.651,7.4,7.4,0,0,1,2.51-3.754A27.251,27.251,0,0,1,22.7,5.3a24.622,24.622,0,0,1,13.47,2.016C42.4,10.848,46.531,16.4,47.578,22.978V29.06c-1.3,9.959-9.881,17.53-19.762,18.554ZM50.661,24.965C50.438,10.384,35.919.549,21.78,2.535A28.916,28.916,0,0,0,9.929,8.46C8.371,9.483,7.642,11.376,6.084,12.9-.144,21.987.938,33.622,8.689,40.7a30.052,30.052,0,0,0,3.177,2.731c-6.48-3.88-9.4-9.746-10.42-16.879a36.809,36.809,0,0,1,1.048-7.6C6.117,7.808,17.522-.29,29.946,1.758c2.065.5,4.13,1.024,6.229,1.521a21.824,21.824,0,0,1,7.243,4.561A36.532,36.532,0,0,1,48.6,14.912a30.9,30.9,0,0,1,2.065,6.578,21.375,21.375,0,0,1,0,3.476Z" transform="translate(-0.022 -0.009)" fill-rule="evenodd"/>
    <path id="Path_33867" data-name="Path 33867" d="M25.979,13.687A11.578,11.578,0,0,1,14.192,25.044,11.579,11.579,0,0,1,2.405,13.687,11.578,11.578,0,0,1,14.192,2.333,11.578,11.578,0,0,1,25.979,13.689Z" transform="translate(11.76 11.486)" fill="#fff" fill-rule="evenodd"/>
    <path id="Path_33868" data-name="Path 33868" d="M26.19,11.935c-.159-.868-.414-1.551-.667-2.512a13.3,13.3,0,0,0-4.481-5.151C13.672-.6,3.536,4.086,2.457,12.4a11.415,11.415,0,0,0,2.859,8.874,12.831,12.831,0,0,1-1.81-2.111l-.063.063c.063.186.318.31.381.5,0,0-.255,0-.19-.031-.19-.215-.031.126.253.59a6.294,6.294,0,0,0,.953,1.3,13.951,13.951,0,0,0,2.065,1.831,21.638,21.638,0,0,0,4.258,2.078c.445.126.953.249,1.463.341a9.124,9.124,0,0,0,1.62.126,10.132,10.132,0,0,0,1.81-.189,13.055,13.055,0,0,0,2.128-.433,11.029,11.029,0,0,0,4.195-2.359,14.426,14.426,0,0,0,2.128-2.2c.541-1.054.6-1.582.859-2.048a8.912,8.912,0,0,0,.794-1.707,14.61,14.61,0,0,0,.318-2.575,12.853,12.853,0,0,0-.286-2.513ZM18.628,6.165c1.081.62,1.239.713.667.31a3.893,3.893,0,0,1,1.843,1.117A12.269,12.269,0,0,1,23.9,12.525a10.772,10.772,0,0,1-.857,6.175,10.538,10.538,0,0,1-7.435,5.335c-.349,0-.73,0-1.081.031.89-.156,1.463-.714,3.083-1.3,1.746-.62,3.717-3.5,4.671-5.181,2.795-4.561-.51-8.78-3.655-11.416ZM12.656,24.1a10.27,10.27,0,0,1-9.055-9,10.551,10.551,0,0,0,4.034,6.236c.731.466,1.81,1.117,2.542,1.582a17.275,17.275,0,0,0,3.177,1.18h-.7Zm12.993-8.283c-.22.963-.444,1.892-.667,2.855a10.2,10.2,0,0,1-2.128,3.35,16.464,16.464,0,0,1-3.368,2.421,14.755,14.755,0,0,1-3.146.991,12.061,12.061,0,0,1-1.812-.215A11.414,11.414,0,0,0,25.364,12,15.248,15.248,0,0,0,22.6,6.817c-.508-.714-1.494-1.148-2.224-1.862-4.417-2.76-10.261-2.2-13.6,1.428A15.09,15.09,0,0,0,5.474,7.9a11.847,11.847,0,0,1,8.07-4.964,18.27,18.27,0,0,1,3.654.4c5.338,1.612,9.31,6.763,8.451,12.473Z" transform="translate(11.613 11.315)" fill="#d7df23" fill-rule="evenodd"/>
  </g>
</svg>
