<svg xmlns="http://www.w3.org/2000/svg" width="106.328" height="58.518" viewBox="0 0 106.328 58.518">
  <g id="tripadvisor-ar21" transform="translate(0)" style="mix-blend-mode: luminosity;isolation: isolate">
    <g id="Group_15934" data-name="Group 15934" transform="translate(25.588 0)">
      <path id="Path_33862" data-name="Path 33862" d="M41.708,0a34.383,34.383,0,0,0-18.89,5.181l-8.655.008a17.8,17.8,0,0,1,2.7,5.475l21.9,16.808,2.94,4.4,2.969-4.433L66.637,10.652a17.79,17.79,0,0,1,2.718-5.529l-9.223-.006A33.6,33.6,0,0,0,41.707,0Z" transform="translate(-14.163)" fill="#000a12"/>
      <path id="Path_33863" data-name="Path 33863" d="M53.548,4.814A13.778,13.778,0,0,0,40.211,17.562a13.833,13.833,0,0,0-13.5-12.807A34.1,34.1,0,0,1,40.15,2.147a32.461,32.461,0,0,1,13.4,2.667" transform="translate(-12.61 0.266)" fill="#fcc40f"/>
      <g id="Group_15932" data-name="Group 15932" transform="translate(1.285 7.022)">
        <ellipse id="Ellipse_700" data-name="Ellipse 700" cx="12.373" cy="12.373" rx="12.373" ry="12.373" fill="#fff" stroke="#000a12" stroke-width="2.562"/>
        <ellipse id="Ellipse_701" data-name="Ellipse 701" cx="5.563" cy="5.563" rx="5.563" ry="5.563" transform="translate(6.81 6.81)" fill="none" stroke="#000a12" stroke-width="2.235"/>
      </g>
      <ellipse id="Ellipse_702" data-name="Ellipse 702" cx="2.298" cy="2.298" rx="2.298" ry="2.298" transform="translate(11.36 17.098)" fill="#ef6a45"/>
      <g id="Group_15933" data-name="Group 15933" transform="translate(29.122 6.998)">
        <ellipse id="Ellipse_703" data-name="Ellipse 703" cx="12.373" cy="12.373" rx="12.373" ry="12.373" fill="#fff" stroke="#000a12" stroke-width="2.562"/>
        <ellipse id="Ellipse_704" data-name="Ellipse 704" cx="5.563" cy="5.563" rx="5.563" ry="5.563" transform="translate(6.81 6.81)" fill="none" stroke="#000a12" stroke-width="2.235"/>
      </g>
      <ellipse id="Ellipse_705" data-name="Ellipse 705" cx="2.298" cy="2.298" rx="2.298" ry="2.298" transform="translate(39.197 17.073)" fill="#00b087"/>
    </g>
    <path id="Path_33864" data-name="Path 33864" d="M31.938,37.1a1.41,1.41,0,1,0,1.408,1.41,1.409,1.409,0,0,0-1.408-1.41ZM17.357,38.354l-.164.06-2.135.733v2.787H12.689v1.872h2.3v6c0,2.858.974,4.023,3.358,4.023a6.785,6.785,0,0,0,1.77-.234l.09-.026-.022-1.935-.169.054a3.438,3.438,0,0,1-1.122.247c-1.116,0-1.535-.633-1.535-2.334V43.8h2.735v-1.87H17.358v-3.58ZM41.5,41.66a4.563,4.563,0,0,0-3.905,2.173v-1.91H35.422V58.375h2.371V51.992a4.3,4.3,0,0,0,3.613,1.8c3,0,4.93-2.458,4.93-6.254,0-3.525-1.941-5.893-4.84-5.893Zm-13.74.067a3.482,3.482,0,0,0-3.176,2.1v-1.9H22.414V53.62h2.371V47.754c0-2.463,1.034-3.815,2.9-3.815a3.1,3.1,0,0,1,.854.13l.153.045.076-2.308Zm3,.206V53.62h2.36V41.933Zm10.17,1.686c1.832,0,2.93,1.52,2.93,4.068,0,2.6-1.157,4.2-3.02,4.2s-3.043-1.6-3.043-4.18C37.793,45.226,39.022,43.619,40.926,43.619Z" transform="translate(-12.689 0.142)" fill="#000a12"/>
    <path id="Path_33865" data-name="Path 33865" d="M63.833,36.436V43.6a4.271,4.271,0,0,0-3.657-1.862c-2.895,0-4.839,2.388-4.839,5.936,0,3.657,1.969,6.211,4.8,6.211A4.358,4.358,0,0,0,64.015,51.7v2h2.191V36.436H63.835Zm17.828.742a1.409,1.409,0,1,0,1.409,1.41,1.409,1.409,0,0,0-1.409-1.41ZM49.375,41.74a8.745,8.745,0,0,0-3.88.836l-.073.034.027,2.023.183-.1a6.513,6.513,0,0,1,3.131-.942,2.456,2.456,0,0,1,2.7,2.7v.1H50.106c-3.9,0-6.05,1.414-6.05,3.978a3.484,3.484,0,0,0,3.769,3.5,4.484,4.484,0,0,0,3.8-1.849V53.7h2.143V46.625c0-3.24-1.474-4.888-4.388-4.888Zm51.39,0c-3.562,0-5.776,2.344-5.776,6.121s2.214,6.117,5.776,6.117c3.578,0,5.8-2.343,5.8-6.117S104.342,41.74,100.765,41.74Zm13.35.067a3.492,3.492,0,0,0-3.177,2.1V42.014h-2.163V53.7h2.371V47.836c0-2.463,1.03-3.815,2.9-3.815a3.042,3.042,0,0,1,.852.13l.153.045.079-2.308-1.02-.082Zm-24.193.072c-2.57,0-4.3,1.256-4.3,3.132,0,1.646,1.131,2.515,3.216,3.529,1.315.65,2,1.028,2,1.94,0,.933-.848,1.54-2.155,1.54a6.883,6.883,0,0,1-2.976-.762l-.174-.088-.079,2.061.082.034a8.264,8.264,0,0,0,3.054.581c2.9,0,4.774-1.384,4.774-3.522,0-1.785-1.188-2.686-3.241-3.644C88.627,45.975,88,45.555,88,44.81c0-.708.7-1.172,1.8-1.172a6.572,6.572,0,0,1,2.842.647l.17.079.108-2.016-.092-.036a10.414,10.414,0,0,0-2.885-.432Zm-22.27.135L73.382,53.7,79.27,42.014H76.793L73.43,48.762l-3.106-6.747H67.652Zm12.822,0V53.7h2.371V42.014H80.473Zm20.312,1.6c2,0,3.293,1.659,3.293,4.225,0,2.551-1.292,4.2-3.293,4.2-1.969,0-3.293-1.688-3.293-4.2S98.817,43.61,100.787,43.61ZM60.7,43.635c1.961,0,3.13,1.559,3.13,4.18,0,2.495-1.209,4.113-3.086,4.113-1.8,0-2.926-1.578-2.926-4.113S58.952,43.635,60.7,43.635Zm-10.46,4.421h1.219v.715a3,3,0,0,1-3.09,3.313,1.811,1.811,0,0,1-1.946-1.834c0-1.416,1.355-2.194,3.816-2.194Z" transform="translate(-8.806 0.061)" fill="#00b087"/>
  </g>
</svg>
