<svg xmlns="http://www.w3.org/2000/svg" xmlns:xlink="http://www.w3.org/1999/xlink" width="43.939" height="34.789" viewBox="0 0 43.939 34.789">
  <defs>
    <linearGradient id="linear-gradient" x1="0.5" x2="0.5" y2="1" gradientUnits="objectBoundingBox">
      <stop offset="0" stop-color="#f15747"/>
      <stop offset="1" stop-color="#f68e63"/>
    </linearGradient>
  </defs>
  <path id="Union_4" data-name="Union 4" d="M-3533.254,15620.788a2.7,2.7,0,0,1-2.744-2.748v-7.323h16.477v2.289a3.24,3.24,0,0,0,3.2,3.2h4.579a3.242,3.242,0,0,0,3.2-3.2v-2.289h16.477v7.323a2.756,2.756,0,0,1-2.744,2.748Zm16.936-6.41a1.4,1.4,0,0,1-1.372-1.372v-6.409a1.407,1.407,0,0,1,1.372-1.372h4.579a1.41,1.41,0,0,1,1.372,1.372v6.409a1.407,1.407,0,0,1-1.372,1.372Zm7.782-5.492v-2.289a3.245,3.245,0,0,0-3.2-3.2h-4.579a3.242,3.242,0,0,0-3.2,3.2v2.289H-3536v-14.646a2.7,2.7,0,0,1,2.744-2.748h11.9v-2.744a2.639,2.639,0,0,1,.823-1.925,2.491,2.491,0,0,1,1.921-.823h9.154a2.756,2.756,0,0,1,2.748,2.748v2.744h11.9a2.756,2.756,0,0,1,2.744,2.748v14.646Zm-10.71-20.781a.831.831,0,0,0-.274.643v2.744h10.985v-2.744a.986.986,0,0,0-.917-.917h-9.154A.831.831,0,0,0-3519.247,15588.1Z" transform="translate(3535.999 -15585.999)" fill="url(#linear-gradient)"/>
</svg>
