<svg xmlns="http://www.w3.org/2000/svg" width="30.002" height="30.284" viewBox="0 0 30.002 30.284">
  <g id="Group_15816" data-name="Group 15816" transform="translate(-1258.188 -698.198)">
    <g id="noun-call-1929650" transform="translate(1258.188 698.197)">
      <path id="Path_13447" data-name="Path 13447" d="M125.163,105.886a4.205,4.205,0,0,0-5.941.3l-.916,1.011a4.191,4.191,0,0,0-.868,1.479l-.082.245-.24-.095a17.713,17.713,0,0,1-9.365-8.594l-.13-.26.279-.084a4.2,4.2,0,0,0,1.9-1.206l.915-1.011a4.207,4.207,0,0,0-.3-5.942l-1.544-1.4a4.207,4.207,0,0,0-5.941.3l-.915,1.013a4.189,4.189,0,0,0-.336.425l-.042.046a5.124,5.124,0,0,0-1.173,4.737,23.6,23.6,0,0,0,20.975,18.97,5.924,5.924,0,0,0,3.617-.755,4.223,4.223,0,0,0,1.027-.828l.915-1.012a4.211,4.211,0,0,0-.3-5.941Z" transform="translate(-100.346 -85.564)" fill="#fff"/>
      <path id="Union_2" data-name="Union 2" d="M8.805,14.584A7.833,7.833,0,0,0,.981,6.759a.98.98,0,1,1,0-1.96,9.8,9.8,0,0,1,9.787,9.784.981.981,0,1,1-1.962,0Zm4.8-.158A12.479,12.479,0,0,0,1.14,1.962.981.981,0,0,1,1.14,0h0A14.443,14.443,0,0,1,15.566,14.426a.98.98,0,1,1-1.961,0Z" transform="translate(14.436 0.001)" fill="#fff"/>
    </g>
  </g>
</svg>
