<svg xmlns="http://www.w3.org/2000/svg" width="30" height="30" viewBox="0 0 30 30">
  <g id="Group_16144" data-name="Group 16144" transform="translate(-1285 -1036)">
    <circle id="Ellipse_731" data-name="Ellipse 731" cx="15" cy="15" r="15" transform="translate(1285 1036)" fill="#222"/>
    <g id="noun-phone-1088689" transform="translate(1294 1045)">
      <path id="Path_33842" data-name="Path 33842" d="M99.041,28.488c.373-.16.734-.32,1.107-.493a.636.636,0,0,1,.84.333,15.411,15.411,0,0,0,1.174,2.228.679.679,0,0,1-.187.907c-.32.227-.64.467-.96.694a17.813,17.813,0,0,0,4.708,4.722c.227-.32.467-.64.694-.96a.679.679,0,0,1,.907-.187,18.612,18.612,0,0,0,2.227,1.174.632.632,0,0,1,.333.84c-.16.373-.32.734-.493,1.107a2.021,2.021,0,0,1-2.6.96,14.842,14.842,0,0,1-5.309-3.4,14.368,14.368,0,0,1-3.4-5.309,2.032,2.032,0,0,1,.96-2.614Z" transform="translate(-97.937 -27.94)" fill="#fff"/>
    </g>
  </g>
</svg>
