<svg xmlns="http://www.w3.org/2000/svg" width="93" height="16" viewBox="0 0 93 16">
  <g id="Group_15809" data-name="Group 15809" transform="translate(-597 -1023)">
    <path id="Polygon_1" data-name="Polygon 1" d="M8.5,0l1.913,6.24L17,6.111,11.594,9.84,13.753,16,8.5,12.065,3.247,16,5.406,9.84,0,6.111l6.587.128Z" transform="translate(597 1023)" fill="#f9d800"/>
    <path id="Polygon_2" data-name="Polygon 2" d="M8.5,0l1.913,6.24L17,6.111,11.594,9.84,13.753,16,8.5,12.065,3.247,16,5.406,9.84,0,6.111l6.587.128Z" transform="translate(616 1023)" fill="#f9d800"/>
    <path id="Polygon_3" data-name="Polygon 3" d="M8.5,0l1.913,6.24L17,6.111,11.594,9.84,13.753,16,8.5,12.065,3.247,16,5.406,9.84,0,6.111l6.587.128Z" transform="translate(635 1023)" fill="#f9d800"/>
    <path id="Polygon_4" data-name="Polygon 4" d="M8.5,0l1.913,6.24L17,6.111,11.594,9.84,13.753,16,8.5,12.065,3.247,16,5.406,9.84,0,6.111l6.587.128Z" transform="translate(654 1023)" fill="#f9d800"/>
    <path id="Polygon_5" data-name="Polygon 5" d="M8.5,0l1.913,6.24L17,6.111,11.594,9.84,13.753,16,8.5,12.065,3.247,16,5.406,9.84,0,6.111l6.587.128Z" transform="translate(673 1023)" fill="#f9d800"/>
  </g>
</svg>
