<svg xmlns="http://www.w3.org/2000/svg" xmlns:xlink="http://www.w3.org/1999/xlink" width="42.497" height="40.174" viewBox="0 0 42.497 40.174">
  <defs>
    <clipPath id="clip-path">
      <rect id="Rectangle_24837" data-name="Rectangle 24837" width="42.497" height="40.174" fill="#ff5300"/>
    </clipPath>
    <linearGradient id="linear-gradient" x1="0.5" x2="0.5" y2="1" gradientUnits="objectBoundingBox">
      <stop offset="0" stop-color="#f15747"/>
      <stop offset="1" stop-color="#f68e63"/>
    </linearGradient>
  </defs>
  <g id="Group_16021" data-name="Group 16021" transform="translate(-1143.264 -757.336)">
    <g id="Group_16019" data-name="Group 16019" transform="translate(1143.264 757.336)">
      <g id="Group_16018" data-name="Group 16018" clip-path="url(#clip-path)">
        <path id="Union_6" data-name="Union 6" d="M11805.636,21252.023a3.672,3.672,0,0,1-.032-.537q-.007-6.161,0-12.328v-.4h.011v-5.186h-8.311v-5.83h.464q7.657,0,15.314-.006a1.405,1.405,0,0,0,.655-.176q4.233-2.288,8.444-4.6a2.629,2.629,0,0,1,2.832.059,2.7,2.7,0,0,1,1.3,2.5,2.777,2.777,0,0,1-1.377,2.289q-3.592,2.344-7.19,4.684c-.437.287-1.04.5-1.259.9a3.721,3.721,0,0,0-.085,1.59q-.007,1.945,0,3.9v.244q0,6.2,0,12.408a2.073,2.073,0,0,1-4.124.416c-.021-.2-.026-.412-.026-.619,0-2.854.006-5.7,0-8.551a2.172,2.172,0,0,0-.107-.768,1.2,1.2,0,0,0-1.253-.77,1.246,1.246,0,0,0-1.088,1.041,3.949,3.949,0,0,0-.038.619c0,2.875.006,5.756,0,8.631a2.074,2.074,0,0,1-1.68,2.2,2,2,0,0,1-.4.041A2.075,2.075,0,0,1,11805.636,21252.023Zm5.3-25.117a4.993,4.993,0,1,1,.01,0Z" transform="translate(-11783.808 -21214.371)" stroke="rgba(0,0,0,0)" stroke-width="1" fill="url(#linear-gradient)"/>
      </g>
    </g>
    <path id="Path_33921" data-name="Path 33921" d="M12.536,0A1.5,1.5,0,0,1,13.5,1.6c-.021,3.721-.009,7.442-.009,11.164v.6c0,5.837.018.049,0,5.829v.582c0,7.041,0,10.972,0,18.013a2.815,2.815,0,0,1-.069.739,1.23,1.23,0,0,1-2.392-.192A4.559,4.559,0,0,1,11,37.717c0-10.057,0-17,0-27.061v-.612h-.491c-2.947,0-5.893-.018-8.84.012A1.6,1.6,0,0,1,0,9.132V.913A1.9,1.9,0,0,1,.913,0Z" transform="translate(1143.264 757.336)" fill="#ffa87f"/>
  </g>
</svg>
