<svg xmlns="http://www.w3.org/2000/svg" xmlns:xlink="http://www.w3.org/1999/xlink" width="43.562" height="51.859" viewBox="0 0 43.562 51.859">
  <defs>
    <clipPath id="clip-path">
      <rect id="Rectangle_24834" data-name="Rectangle 24834" width="43.122" height="37.859" transform="translate(0 14)" fill="none"/>
    </clipPath>
    <linearGradient id="linear-gradient" x1="0.5" x2="0.5" y2="1" gradientUnits="objectBoundingBox">
      <stop offset="0" stop-color="#f15747"/>
      <stop offset="1" stop-color="#f68e63"/>
    </linearGradient>
  </defs>
  <g id="Group_33731" data-name="Group 33731" transform="translate(-420 -997)">
    <g id="Group_16012" data-name="Group 16012" transform="translate(420.439 997)">
      <g id="Group_16011" data-name="Group 16011" clip-path="url(#clip-path)">
        <path id="Path_33906" data-name="Path 33906" d="M78.693,150.088a1.265,1.265,0,0,1-.6-1.232q.016-15.768.009-31.536a3.481,3.481,0,0,1,3.755-3.751q7.25-.007,14.5,0a3.479,3.479,0,0,1,3.756,3.751q0,15.768.009,31.536a1.269,1.269,0,0,1-.6,1.232H94.463a1.156,1.156,0,0,1-.619-1.163c.018-3.086.01-6.172.008-9.258,0-.843-.284-1.132-1.112-1.133q-3.61,0-7.221,0c-.9,0-1.162.271-1.162,1.183,0,3.069-.01,6.139.008,9.208a1.16,1.16,0,0,1-.619,1.163Zm10.449-27.761q-2.4,0-4.793,0c-.673,0-1.073.334-1.063.871s.4.852,1.039.852q4.768,0,9.535,0c.669,0,1.07-.341,1.062-.88s-.4-.843-1.09-.844q-2.346,0-4.692,0m-.071,10.039c1.094,0,2.188,0,3.283,0,.666,0,1.076-.345,1.064-.878-.011-.517-.408-.845-1.047-.846q-3.257,0-6.514,0c-.666,0-1.076.345-1.064.879.012.519.406.842,1.046.845,1.077,0,2.155,0,3.232,0" transform="translate(-67.545 -98.228)" fill="url(#linear-gradient)"/>
        <path id="Path_33907" data-name="Path 33907" d="M254.289,228.968a1.273,1.273,0,0,1-.533-1.113q.026-10.911.02-21.822c0-1.038.233-1.269,1.281-1.269,1.331,0,2.661-.006,3.992,0A3.415,3.415,0,0,1,262.6,208.3q.022,8.557,0,17.113a3.392,3.392,0,0,1-2.679,3.465.927.927,0,0,0-.173.09Zm2.4-13.724c0,.59-.01,1.18,0,1.769a.857.857,0,1,0,1.711.054q.033-1.819,0-3.64a.857.857,0,1,0-1.711.047c-.013.589,0,1.18,0,1.769" transform="translate(-219.486 -177.108)" fill="#ff5300" opacity="0.5"/>
        <path id="Path_33908" data-name="Path 33908" d="M2.859,228.976a.917.917,0,0,0-.173-.09,3.4,3.4,0,0,1-2.679-3.464C0,222.047,0,218.671,0,215.3c0-2.278,0-4.557,0-6.835a3.448,3.448,0,0,1,3.7-3.688q2,0,3.992,0c.841,0,1.129.285,1.13,1.117q.007,11.012.021,22.025a1.259,1.259,0,0,1-.534,1.062Zm3.057-13.72c0-.59.01-1.18,0-1.77a.839.839,0,0,0-.849-.923.854.854,0,0,0-.866.919q-.025,1.769,0,3.539a.852.852,0,0,0,.862.922.833.833,0,0,0,.854-.918c.014-.59,0-1.18,0-1.77" transform="translate(0 -177.117)" fill="#ff5300" opacity="0.5"/>
        <path id="Path_33910" data-name="Path 33910" d="M142.667,321.044h-4.852a1.139,1.139,0,0,1-.6-1.024c.011-2.6,0-5.192.008-7.788,0-.7.325-1.012,1.028-1.015,1.279-.005,2.557,0,3.836,0,.9,0,1.182.274,1.183,1.168,0,2.495-.01,4.99.009,7.484a1.211,1.211,0,0,1-.607,1.176" transform="translate(-118.68 -269.185)" fill="#ff5300" opacity="0.5"/>
      </g>
    </g>
    <path id="Polygon_65" data-name="Polygon 65" d="M6.5,0,7.963,4.68,13,4.584,8.866,7.38,10.517,12,6.5,9.048,2.483,12,4.134,7.38,0,4.584l5.037.1Z" transform="translate(420 997)" fill="#ffd800"/>
    <path id="Polygon_66" data-name="Polygon 66" d="M6.5,0,7.963,4.68,13,4.584,8.866,7.38,10.517,12,6.5,9.048,2.483,12,4.134,7.38,0,4.584l5.037.1Z" transform="translate(435 997)" fill="#ffd800"/>
    <path id="Polygon_67" data-name="Polygon 67" d="M6.5,0,7.963,4.68,13,4.584,8.866,7.38,10.517,12,6.5,9.048,2.483,12,4.134,7.38,0,4.584l5.037.1Z" transform="translate(450 997)" fill="#ffd800"/>
  </g>
</svg>
