<svg xmlns="http://www.w3.org/2000/svg" xmlns:xlink="http://www.w3.org/1999/xlink" width="29.012" height="25.471" viewBox="0 0 29.012 25.471">
  <defs>
    <clipPath id="clip-path">
      <rect id="Rectangle_24834" data-name="Rectangle 24834" width="29.012" height="25.471" fill="none"/>
    </clipPath>
    <linearGradient id="linear-gradient" x1="0.5" x2="0.5" y2="1" gradientUnits="objectBoundingBox">
      <stop offset="0" stop-color="#f15747"/>
      <stop offset="1" stop-color="#f68e63"/>
    </linearGradient>
  </defs>
  <g id="Group_16012" data-name="Group 16012" transform="translate(0)">
    <g id="Group_16011" data-name="Group 16011" transform="translate(0 0)" clip-path="url(#clip-path)">
      <path id="Path_33906" data-name="Path 33906" d="M78.5,138.137a.851.851,0,0,1-.4-.829q.011-10.608.006-21.216a2.342,2.342,0,0,1,2.527-2.524q4.877,0,9.755,0a2.341,2.341,0,0,1,2.527,2.524q0,10.608.006,21.216a.854.854,0,0,1-.4.829h-3.4a.778.778,0,0,1-.416-.782c.012-2.076.007-4.153.005-6.229,0-.567-.191-.762-.748-.762q-2.429,0-4.858,0c-.6,0-.782.183-.782.8,0,2.065-.006,4.13.006,6.195a.78.78,0,0,1-.416.783Zm7.03-18.677q-1.612,0-3.225,0c-.452,0-.722.225-.715.586s.269.573.7.574q3.208,0,6.415,0c.45,0,.72-.229.715-.592s-.27-.567-.733-.568q-1.578,0-3.157,0m-.048,6.754c.736,0,1.472,0,2.208,0,.448,0,.724-.232.716-.591s-.275-.568-.7-.569q-2.191,0-4.383,0c-.448,0-.724.232-.716.591s.273.567.7.568c.725,0,1.45,0,2.174,0" transform="translate(-70.996 -112.666)" fill="url(#linear-gradient)"/>
      <path id="Path_33907" data-name="Path 33907" d="M254.115,221.047a.856.856,0,0,1-.359-.748q.017-7.341.014-14.681c0-.7.157-.854.862-.854.9,0,1.791,0,2.686,0a2.3,2.3,0,0,1,2.388,2.378q.015,5.757,0,11.513a2.282,2.282,0,0,1-1.8,2.331.625.625,0,0,0-.116.06Zm1.616-9.233c0,.4-.007.794,0,1.19a.576.576,0,1,0,1.151.036q.022-1.224,0-2.449a.576.576,0,1,0-1.151.032c-.009.4,0,.794,0,1.19" transform="translate(-230.7 -195.576)" fill="#ff5300" opacity="0.5"/>
      <path id="Path_33908" data-name="Path 33908" d="M1.924,221.056a.616.616,0,0,0-.116-.06A2.284,2.284,0,0,1,0,218.664c-.008-2.271,0-4.542,0-6.813,0-1.533,0-3.066,0-4.6A2.32,2.32,0,0,1,2.5,204.772q1.343,0,2.686,0c.566,0,.76.192.76.751q0,7.409.014,14.818a.847.847,0,0,1-.359.715Zm2.057-9.23c0-.4.007-.794,0-1.191a.564.564,0,0,0-.571-.621.574.574,0,0,0-.583.618q-.017,1.19,0,2.381a.573.573,0,0,0,.58.621.56.56,0,0,0,.574-.617c.009-.4,0-.794,0-1.19" transform="translate(0 -195.585)" fill="#ff5300" opacity="0.5"/>
      <path id="Path_33910" data-name="Path 33910" d="M140.882,317.827h-3.265a.766.766,0,0,1-.406-.689c.008-1.747,0-3.493.005-5.239,0-.47.219-.681.692-.683.86,0,1.72,0,2.581,0,.608,0,.8.185.8.786,0,1.678-.007,3.357.006,5.035a.815.815,0,0,1-.408.791" transform="translate(-124.744 -292.357)" fill="#ff5300" opacity="0.5"/>
    </g>
  </g>
</svg>
