<svg xmlns="http://www.w3.org/2000/svg" width="36" height="36" viewBox="0 0 36 36">
  <path id="Subtraction_2" data-name="Subtraction 2" d="M18,36A18,18,0,0,1,10.994,1.415,18,18,0,0,1,25.006,34.585,17.887,17.887,0,0,1,18,36ZM17.711,8.069c-2.607,0-2.948.011-3.974.059a7.128,7.128,0,0,0-2.341.449A4.639,4.639,0,0,0,9.69,9.687,4.745,4.745,0,0,0,8.577,11.4a7.173,7.173,0,0,0-.449,2.341c-.048,1.025-.059,1.366-.059,3.973s.011,2.949.059,3.974a7.133,7.133,0,0,0,.449,2.341,4.7,4.7,0,0,0,1.113,1.7A4.758,4.758,0,0,0,11.4,26.841a7.193,7.193,0,0,0,2.341.449c1.034.048,1.377.06,3.974.06s2.94-.011,3.973-.06a7.149,7.149,0,0,0,2.341-.449,4.71,4.71,0,0,0,1.7-1.113,4.759,4.759,0,0,0,1.113-1.709,7.189,7.189,0,0,0,.449-2.341c.048-1.035.06-1.378.06-3.973s-.011-2.939-.06-3.974a7.154,7.154,0,0,0-.449-2.342,4.7,4.7,0,0,0-1.113-1.7,4.756,4.756,0,0,0-1.709-1.113,7.172,7.172,0,0,0-2.341-.449C20.647,8.08,20.3,8.069,17.711,8.069Zm0,17.541c-2.619,0-2.891-.009-3.895-.056a5.3,5.3,0,0,1-1.79-.333A3.19,3.19,0,0,1,10.2,23.393,5.332,5.332,0,0,1,9.865,21.6c-.047-1.046-.056-1.356-.056-3.894,0-2.618.009-2.89.056-3.895a5.28,5.28,0,0,1,.334-1.79A3.186,3.186,0,0,1,12.026,10.2a5.329,5.329,0,0,1,1.79-.333c1.005-.048,1.277-.056,3.895-.056s2.889.009,3.894.056A5.28,5.28,0,0,1,23.4,10.2a3.19,3.19,0,0,1,1.827,1.827,5.353,5.353,0,0,1,.333,1.79c.047,1.046.056,1.356.056,3.895,0,2.617-.009,2.889-.056,3.894a5.3,5.3,0,0,1-.333,1.791A3.194,3.194,0,0,1,23.4,25.22a5.35,5.35,0,0,1-1.791.333C20.559,25.6,20.249,25.61,17.711,25.61Zm0-12.853a4.951,4.951,0,1,0,4.951,4.951A4.957,4.957,0,0,0,17.711,12.757ZM22.856,11.4a1.158,1.158,0,1,0,1.158,1.157A1.159,1.159,0,0,0,22.856,11.4Zm-5.145,9.517a3.214,3.214,0,1,1,3.214-3.214A3.217,3.217,0,0,1,17.711,20.922Z" transform="translate(0)" fill="#fff"/>
</svg>
