<svg id="Group_16017" data-name="Group 16017" xmlns="http://www.w3.org/2000/svg" xmlns:xlink="http://www.w3.org/1999/xlink" width="34.256" height="34.228" viewBox="0 0 34.256 34.228">
  <defs>
    <clipPath id="clip-path">
      <rect id="Rectangle_24836" data-name="Rectangle 24836" width="34.256" height="34.228" fill="none"/>
    </clipPath>
    <linearGradient id="linear-gradient" x1="0.5" x2="0.5" y2="1" gradientUnits="objectBoundingBox">
      <stop offset="0" stop-color="#f15747"/>
      <stop offset="1" stop-color="#f68e63"/>
    </linearGradient>
  </defs>
  <g id="Group_16016" data-name="Group 16016" clip-path="url(#clip-path)">
    <path id="Path_33914" data-name="Path 33914" d="M245.018,7.893c-.644,3.324-2.663,5.9-4.625,8.51-.63.836-1.323,1.624-2,2.421a1.056,1.056,0,0,1-1.707.027,43.17,43.17,0,0,1-5.135-6.993,11.915,11.915,0,0,1-1.378-3.317,6.361,6.361,0,0,1,.513-4.072,7.389,7.389,0,0,1,5.291-4.3c.291-.068.588-.111.882-.165h1.338c.1.023.191.052.288.067a7.354,7.354,0,0,1,6.059,4.856,14.894,14.894,0,0,1,.477,1.9Zm-7.507-3.61a3.209,3.209,0,1,0,3.223,3.2,3.236,3.236,0,0,0-3.223-3.2" transform="translate(-210.762)" fill="#ffa87f"/>
    <path id="Union_5" data-name="Union 5" d="M11999.7,21225.977c.224.256.416.459.592.672a3.283,3.283,0,0,0,1.674,1.162,3.1,3.1,0,0,0,3.337-.953,45.546,45.546,0,0,0,3.886-4.932c.405-.6.8-1.2,1.2-1.8v15.854a1.4,1.4,0,0,1-.934.918q-4.693,1.863-9.387,3.748c-.112.041-.229.084-.368.133Zm-23.525,14.01a1.659,1.659,0,0,1-.037-.395q-.007-9.668,0-19.324a1.154,1.154,0,0,1,.762-1.178q4.878-1.951,9.761-3.9a.979.979,0,0,1,.182-.043v.385q0,10.562.011,21.125a.466.466,0,0,1-.357.523c-2.91,1.15-5.815,2.3-8.71,3.486a1.489,1.489,0,0,1-.559.115A1.046,1.046,0,0,1,11976.17,21239.986Zm19.905-.117q-3.39-1.359-6.786-2.707a.413.413,0,0,1-.319-.449q.007-10.626,0-21.258v-.342l1.957.783c.917.367,1.839.73,2.756,1.1a.579.579,0,0,1,.3.268,29.178,29.178,0,0,0,3.326,5.7,1.239,1.239,0,0,1,.214.666q.016,8.206,0,16.414v.406C11997.024,21240.242,11996.55,21240.057,11996.075,21239.869Z" transform="translate(-11976.128 -21206.551)" stroke="rgba(0,0,0,0)" stroke-width="1" fill="url(#linear-gradient)"/>
  </g>
</svg>
