<svg xmlns="http://www.w3.org/2000/svg" width="36" height="36" viewBox="0 0 36 36">
  <path id="Subtraction_1" data-name="Subtraction 1" d="M18.005,36A18,18,0,1,1,36,18.005,18.02,18.02,0,0,1,18.005,36Zm6.734-9.578c.494,0,.988,0,1.485.008.178,0,.227-.049.227-.227V20.436a9.9,9.9,0,0,0-.292-2.7,3.13,3.13,0,0,0-2.247-2.355,5.808,5.808,0,0,0-1.62-.194,3.627,3.627,0,0,0-2.571,1c-.147.147-.28.307-.417.472-.082.1-.155.186-.231.273l0-.422c0-.28,0-.561,0-.842a.223.223,0,0,0-.038-.172.186.186,0,0,0-.143-.045H16.018c-.159,0-.216.031-.216.205V26.225c0,.161.044.205.205.205.5-.005,1-.008,1.5-.008s1,0,1.5.008c.178,0,.227-.049.227-.227-.011-1.782-.011-3.554-.011-5.336a7.334,7.334,0,0,1,.054-.853A1.835,1.835,0,0,1,21.2,18.178q.074,0,.145,0a1.5,1.5,0,0,1,1.54,1.193,4.934,4.934,0,0,1,.162,1.361v5.487c0,.159.031.216.205.216C23.752,26.425,24.246,26.422,24.74,26.422Zm-13.242,0c.494,0,.988,0,1.485.008.2,0,.248-.049.248-.248-.007-1.16,0-2.324,0-3.487l0-1.741,0-1.751c0-1.17,0-2.342,0-3.509,0-.162-.027-.239-.183-.239H10c-.151,0-.194.044-.194.194.011,3.521.011,7.053,0,10.574,0,.155.05.205.205.205C10.509,26.425,11,26.422,11.5,26.422ZM11.525,9.57A1.977,1.977,0,1,0,13.5,11.536,1.984,1.984,0,0,0,11.525,9.57Z" fill="#222"/>
</svg>
