<svg xmlns="http://www.w3.org/2000/svg" xmlns:xlink="http://www.w3.org/1999/xlink" width="37.859" height="37.859" viewBox="0 0 37.859 37.859">
  <defs>
    <linearGradient id="linear-gradient" x1="0.5" x2="0.5" y2="1" gradientUnits="objectBoundingBox">
      <stop offset="0" stop-color="#f15747"/>
      <stop offset="1" stop-color="#f68e63"/>
    </linearGradient>
  </defs>
  <g id="Group_16013" data-name="Group 16013" transform="translate(-599.316 -761.07)">
    <path id="noun-food-5523535" d="M106.051,29.746a.9.9,0,0,1-.9.9h-11.2l.144-1.8h11.06a.9.9,0,0,1,.9.9Zm1.8-3.605a4.507,4.507,0,0,0-4.507-4.507h-8.68l-.433,5.408h12.718a.9.9,0,0,0,.9-.9ZM93.8,32.45l-.369,4.723a2.448,2.448,0,0,1-.162.685h11.88a2.7,2.7,0,0,0,2.7-2.7v-1.8a.9.9,0,0,0-.9-.9Z" transform="translate(529.321 761.07)" fill="#ffa87f"/>
    <path id="noun-food-5523535-2" data-name="noun-food-5523535" d="M93.431,10.816H71.8a1.8,1.8,0,1,0,0,3.605H93.431a1.8,1.8,0,1,0,0-3.605ZM91.565,5.976a.9.9,0,0,0-.838-.568H84.309L86.752,1.8h2.172a.9.9,0,0,0,0-1.8h-2.65a.9.9,0,0,0-.748.4L82.137,5.408H74.5a.9.9,0,0,0-.838.568L72.447,9.013H92.783ZM71.942,16.225H93.287l-1.659,20.8a.9.9,0,0,1-.9.829H74.5a.9.9,0,0,1-.9-.829Zm6.165,9.916a4.507,4.507,0,1,0,1.32-3.187A4.507,4.507,0,0,0,78.107,26.14Zm4.507,2.7a2.7,2.7,0,1,0-1.912-.792A2.7,2.7,0,0,0,82.614,28.844Z" transform="translate(529.321 761.07)" fill="url(#linear-gradient)"/>
  </g>
</svg>
