<svg id="noun-map-1843663" xmlns="http://www.w3.org/2000/svg" width="31.624" height="27.855" viewBox="0 0 31.624 27.855">
  <path id="Path_13416" data-name="Path 13416" d="M127.341,386.6a1.141,1.141,0,1,1-1.14-1.14,1.141,1.141,0,0,1,1.14,1.14" transform="translate(-122.989 -365.092)" fill="#fff"/>
  <path id="Path_13417" data-name="Path 13417" d="M101.245,65.6c-.062-.058-.121-.118-.184-.174a.342.342,0,0,1-.025-.483.338.338,0,0,1,.209-.105V52.012L91.16,54.222V79.866l10.085-2.209Zm-7.177-.886a3.071,3.071,0,0,1,1.464-1.752.342.342,0,1,1,.3.614,2.418,2.418,0,0,0-1.128,1.383.342.342,0,0,1-.32.219.353.353,0,0,1-.123-.023.341.341,0,0,1-.2-.441Zm-.437,2.133A.336.336,0,0,1,94,66.534a.341.341,0,0,1,.314.367c-.026.332-.037.67-.037,1.005,0,.35.012.7.032,1.033a.342.342,0,0,1-.321.362h-.021a.343.343,0,0,1-.341-.322c-.021-.349-.033-.71-.033-1.074s.012-.708.04-1.059Zm.741,8.5a1.823,1.823,0,0,1-.406-3.6c-.031-.173-.07-.39-.113-.663a.342.342,0,1,1,.676-.1c.05.324.1.575.129.747a1.821,1.821,0,0,1-.285,3.62Zm5.559-11.264a.342.342,0,0,1-.47.112,5.464,5.464,0,0,0-1.8-.742.342.342,0,0,1,.133-.671,6.1,6.1,0,0,1,2.029.83.341.341,0,0,1,.112.47Z" transform="translate(-91.16 -52.012)" fill="#fff"/>
  <path id="Path_13418" data-name="Path 13418" d="M443.74,70.29c.161-.1.322-.2.482-.307a.342.342,0,0,1,.391.561,7.532,7.532,0,0,1-.873.525v8.8l10.086-2.209V52.016l-10.086,2.21Zm6.677-8.508a.341.341,0,0,1-.334.272.317.317,0,0,1-.071-.008.342.342,0,0,1-.265-.4,15.3,15.3,0,0,0,.274-2.02.342.342,0,0,1,.683.05,16.032,16.032,0,0,1-.287,2.112Zm-1.35-6.081a.342.342,0,1,1,.484-.484l.806.807.807-.807a.342.342,0,1,1,.484.484l-.807.807.806.806a.342.342,0,0,1-.484.484l-.416-.417c0,.049,0,.09,0,.143a.342.342,0,0,1-.333.35h-.009a.342.342,0,0,1-.342-.334c0-.092-.005-.168-.009-.25l-.507.508a.342.342,0,1,1-.484-.484l.807-.807Zm-.933,9.643c.348-.586.639-1.126.874-1.558.043-.079.083-.159.122-.241a.342.342,0,1,1,.617.295c-.044.092-.09.183-.138.272-.238.44-.534.985-.886,1.581a.343.343,0,0,1-.295.168.337.337,0,0,1-.174-.048A.342.342,0,0,1,448.134,65.343Zm-2.4,3.312a15.621,15.621,0,0,0,1.287-1.583.342.342,0,1,1,.555.4,16.418,16.418,0,0,1-1.343,1.653.342.342,0,1,1-.5-.468Z" transform="translate(-422.202 -52.016)" fill="#fff"/>
  <path id="Path_13419" data-name="Path 13419" d="M277.526,71.369c-.134.05-.269.1-.4.137a.342.342,0,1,1-.192-.656,5.4,5.4,0,0,0,.6-.22V54.221L267.44,52.012v13.3c.392.374.77.752,1.1,1.089a.342.342,0,1,1-.493.475c-.185-.192-.392-.4-.6-.613v11.4l10.086,2.209Zm-6-1.591a.344.344,0,0,1-.263.123.338.338,0,0,1-.218-.079c-.462-.385-.954-.844-1.548-1.445a.342.342,0,1,1,.486-.481c.578.585,1.055,1.03,1.5,1.4a.341.341,0,0,1,.044.481Zm3.442,1.91a.329.329,0,0,1-.043,0,6.43,6.43,0,0,1-2.081-.651l-.014-.008a.342.342,0,0,1,.283-.621c.013,0,.026.012.04.018a5.773,5.773,0,0,0,1.855.583.342.342,0,0,1-.041.682Z" transform="translate(-256.671 -52.012)" fill="#fff"/>
</svg>
