<svg id="noun-map-1843663" xmlns="http://www.w3.org/2000/svg" xmlns:xlink="http://www.w3.org/1999/xlink" width="43.941" height="38.703" viewBox="0 0 43.941 38.703">
  <defs>
    <linearGradient id="linear-gradient" x1="0.5" x2="0.5" y2="1" gradientUnits="objectBoundingBox">
      <stop offset="0" stop-color="#f15747"/>
      <stop offset="1" stop-color="#f68e63"/>
    </linearGradient>
  </defs>
  <path id="Path_13416" data-name="Path 13416" d="M128.229,387.047a1.585,1.585,0,1,1-1.585-1.585,1.585,1.585,0,0,1,1.585,1.585" transform="translate(-122.183 -357.159)" fill="url(#linear-gradient)"/>
  <path id="Path_13417" data-name="Path 13417" d="M105.173,70.894c-.087-.08-.168-.163-.256-.242a.475.475,0,0,1-.034-.671.47.47,0,0,1,.29-.147V52.012L91.16,55.082V90.714l14.013-3.07ZM95.2,69.663a4.266,4.266,0,0,1,2.034-2.434.475.475,0,1,1,.419.853A3.36,3.36,0,0,0,96.087,70a.475.475,0,0,1-.444.3.491.491,0,0,1-.171-.032.474.474,0,0,1-.272-.613Zm-.607,2.963a.467.467,0,0,1,.512-.436.474.474,0,0,1,.436.511c-.036.462-.051.931-.051,1.4,0,.487.016.969.045,1.435a.475.475,0,0,1-.446.5h-.03a.476.476,0,0,1-.474-.447c-.03-.485-.046-.987-.046-1.492,0-.49.017-.984.055-1.471Zm1.029,11.808a2.533,2.533,0,0,1-.565-5c-.044-.24-.1-.542-.157-.921a.475.475,0,1,1,.939-.145c.069.45.133.8.179,1.038a2.53,2.53,0,0,1-.4,5.03Zm7.724-15.651a.475.475,0,0,1-.653.156,7.592,7.592,0,0,0-2.507-1.031.475.475,0,0,1,.184-.932,8.48,8.48,0,0,1,2.82,1.153.474.474,0,0,1,.156.653Z" transform="translate(-91.16 -52.012)" fill="url(#linear-gradient)"/>
  <path id="Path_13418" data-name="Path 13418" d="M443.74,77.407c.223-.132.448-.272.669-.427a.475.475,0,0,1,.544.78,10.463,10.463,0,0,1-1.213.729V90.718l14.014-3.07V52.016L443.74,55.087Zm9.277-11.822a.474.474,0,0,1-.464.377.441.441,0,0,1-.1-.011.476.476,0,0,1-.368-.563,21.274,21.274,0,0,0,.38-2.807.476.476,0,0,1,.949.069,22.275,22.275,0,0,1-.4,2.934Zm-1.876-8.45a.475.475,0,0,1,.672-.672l1.12,1.121,1.121-1.121a.475.475,0,0,1,.672.672l-1.121,1.121,1.12,1.12a.476.476,0,0,1-.673.672l-.578-.579c0,.068,0,.125.007.2a.476.476,0,0,1-.463.487h-.012a.476.476,0,0,1-.475-.464c0-.128-.008-.234-.012-.347l-.7.705a.476.476,0,0,1-.673-.672l1.121-1.121Zm-1.3,13.4c.483-.815.888-1.564,1.214-2.165.06-.109.116-.22.17-.335a.475.475,0,1,1,.858.409c-.061.128-.125.255-.192.377-.331.611-.742,1.369-1.231,2.2a.476.476,0,0,1-.41.234.468.468,0,0,1-.242-.067A.475.475,0,0,1,449.846,70.534Zm-3.339,4.6a21.706,21.706,0,0,0,1.788-2.2.475.475,0,1,1,.772.553,22.815,22.815,0,0,1-1.866,2.3.475.475,0,1,1-.694-.65Z" transform="translate(-413.813 -52.016)" fill="url(#linear-gradient)"/>
  <path id="Path_13419" data-name="Path 13419" d="M281.454,78.907c-.186.069-.374.137-.56.191a.475.475,0,1,1-.267-.911,7.506,7.506,0,0,0,.827-.305v-22.8l-14.014-3.07V70.487c.545.52,1.07,1.045,1.522,1.513a.475.475,0,1,1-.684.659c-.258-.267-.545-.559-.838-.852V87.645l14.014,3.07Zm-8.338-2.21a.477.477,0,0,1-.366.171.47.47,0,0,1-.3-.11c-.643-.535-1.326-1.172-2.151-2.008a.475.475,0,1,1,.676-.668c.8.813,1.466,1.432,2.084,1.947a.474.474,0,0,1,.061.669Zm4.783,2.654a.457.457,0,0,1-.06,0,8.935,8.935,0,0,1-2.891-.905l-.019-.011a.475.475,0,0,1,.394-.863c.018.007.036.016.056.026a8.021,8.021,0,0,0,2.577.81.475.475,0,0,1-.057.947Z" transform="translate(-252.477 -52.012)" fill="url(#linear-gradient)"/>
</svg>
