<svg xmlns="http://www.w3.org/2000/svg" xmlns:xlink="http://www.w3.org/1999/xlink" width="43.941" height="44.026" viewBox="0 0 43.941 44.026">
  <defs>
    <linearGradient id="linear-gradient" x1="0.5" x2="0.5" y2="1" gradientUnits="objectBoundingBox">
      <stop offset="0" stop-color="#f15747"/>
      <stop offset="1" stop-color="#f68e63"/>
    </linearGradient>
  </defs>
  <g id="noun-offer-1059514" transform="translate(-97.72 -27.162)">
    <path id="Path_33831" data-name="Path 33831" d="M376.791,327a2.2,2.2,0,1,1-2.2-2.2,2.2,2.2,0,0,1,2.2,2.2" transform="translate(-250.737 -271.697)" fill="url(#linear-gradient)"/>
    <path id="Path_33832" data-name="Path 33832" d="M281.591,181.4a2.2,2.2,0,1,1-2.2-2.2,2.2,2.2,0,0,1,2.2,2.2" transform="translate(-163.835 -138.787)" fill="url(#linear-gradient)"/>
    <path id="Path_33833" data-name="Path 33833" d="M140.892,47.3a4.35,4.35,0,0,1-.878-4.442,2.747,2.747,0,0,0-1.464-3.563,4.411,4.411,0,0,1-2.489-3.758,2.719,2.719,0,0,0-2.685-2.733,4.412,4.412,0,0,1-3.758-2.489,2.73,2.73,0,0,0-3.563-1.464,4.373,4.373,0,0,1-4.442-.878,2.652,2.652,0,0,0-3.807,0,4.35,4.35,0,0,1-4.442.878A2.747,2.747,0,0,0,109.8,30.31a4.411,4.411,0,0,1-3.758,2.489,2.688,2.688,0,0,0-2.685,2.733,4.412,4.412,0,0,1-2.489,3.758A2.73,2.73,0,0,0,99.4,42.854a4.373,4.373,0,0,1-.878,4.442,2.652,2.652,0,0,0,0,3.807,4.35,4.35,0,0,1,.878,4.442,2.747,2.747,0,0,0,1.464,3.563,4.411,4.411,0,0,1,2.489,3.758,2.677,2.677,0,0,0,2.685,2.685A4.412,4.412,0,0,1,109.8,68.04a2.73,2.73,0,0,0,3.563,1.464,4.373,4.373,0,0,1,4.442.878,2.652,2.652,0,0,0,3.807,0,4.35,4.35,0,0,1,4.442-.878,2.747,2.747,0,0,0,3.563-1.464,4.411,4.411,0,0,1,3.758-2.489,2.677,2.677,0,0,0,2.685-2.685,4.474,4.474,0,0,1,2.489-3.758,2.73,2.73,0,0,0,1.464-3.563,4.373,4.373,0,0,1,.878-4.442A2.741,2.741,0,0,0,140.892,47.3ZM111.411,42.61a4.149,4.149,0,1,1,4.149,4.149,4.146,4.146,0,0,1-4.149-4.149Zm2.977,14.984a1.019,1.019,0,0,1-.781.391.938.938,0,0,1-.586-.2,1,1,0,0,1-.2-1.367l12.642-16.6A.976.976,0,0,1,127.03,41Zm9.469,1.855a4.149,4.149,0,1,1,4.149-4.149A4.146,4.146,0,0,1,123.857,59.449Z" fill="url(#linear-gradient)"/>
  </g>
</svg>
