<svg xmlns="http://www.w3.org/2000/svg" width="10.627" height="10.639" viewBox="0 0 10.627 10.639">
  <g id="noun-phone-1088689" transform="translate(0)">
    <path id="Path_33842" data-name="Path 33842" d="M98.915,28.425c.331-.142.649-.283.98-.437a.563.563,0,0,1,.744.3,13.643,13.643,0,0,0,1.039,1.972.6.6,0,0,1-.165.8c-.283.2-.567.413-.85.614a15.77,15.77,0,0,0,4.168,4.18c.2-.283.413-.567.614-.85a.6.6,0,0,1,.8-.165,16.478,16.478,0,0,0,1.972,1.039.559.559,0,0,1,.3.744c-.142.331-.283.65-.437.98a1.789,1.789,0,0,1-2.3.85,13.14,13.14,0,0,1-4.7-3.011,12.721,12.721,0,0,1-3.011-4.7,1.8,1.8,0,0,1,.85-2.315Z" transform="translate(-97.937 -27.94)" fill="#fff"/>
  </g>
</svg>
