<svg id="Group_16015" data-name="Group 16015" xmlns="http://www.w3.org/2000/svg" xmlns:xlink="http://www.w3.org/1999/xlink" width="58.568" height="26.571" viewBox="0 0 58.568 26.571">
  <defs>
    <clipPath id="clip-path">
      <rect id="Rectangle_24835" data-name="Rectangle 24835" width="58.568" height="26.571" fill="none"/>
    </clipPath>
    <linearGradient id="linear-gradient" x1="0.5" x2="0.5" y2="1" gradientUnits="objectBoundingBox">
      <stop offset="0" stop-color="#f15747"/>
      <stop offset="1" stop-color="#f68e63"/>
    </linearGradient>
  </defs>
  <g id="Group_16014" data-name="Group 16014" clip-path="url(#clip-path)">
    <path id="Path_33911" data-name="Path 33911" d="M5.972,21.64a5.134,5.134,0,0,1-5.966-4.88C-.007,14.77.01,12.78,0,10.79A2.423,2.423,0,0,1,.823,8.9Q4.9,5.168,8.988,1.434A5.31,5.31,0,0,1,12.653.007q9.952-.014,19.9,0a5.391,5.391,0,0,1,3.7,1.482c2.693,2.434,5.4,4.847,8.085,7.294a3.059,3.059,0,0,0,2.19.857c1.737-.013,3.475-.023,5.213,0a6.524,6.524,0,0,1,6.135,3.5,6.674,6.674,0,0,1,.631,2.484c.1,1.173.035,2.362.025,3.544a2.437,2.437,0,0,1-2.285,2.486c-1.1.078-2.21.029-3.315.051-.319.006-.4-.146-.415-.427-.13-3.2-3.183-6.382-7.567-6.19a6.977,6.977,0,0,0-6.618,4.44,14.126,14.126,0,0,0-.526,2.12H20.652A6.515,6.515,0,0,0,18.1,16.7a7.6,7.6,0,0,0-4.726-1.622,7.664,7.664,0,0,0-3.549.793A7.058,7.058,0,0,0,7.077,18.23a6.506,6.506,0,0,0-1.105,3.41M23.313,9.591H41.255l.108-.154a1.346,1.346,0,0,1-.314-.16c-2.207-2-4.421-3.989-6.608-6.007a3.191,3.191,0,0,0-2.3-.882c-2.743.017-5.486.006-8.229.007-.19,0-.379.019-.6.03Zm-2.739.017V2.394c-2.5,0-4.943.017-7.39-.008a3.4,3.4,0,0,0-2.459.959c-2.119,1.95-4.259,3.877-6.4,5.8a2.293,2.293,0,0,1-.505.266L4,9.609Z" transform="translate(-0.001 0)" fill="url(#linear-gradient)"/>
    <path id="Path_33912" data-name="Path 33912" d="M258,106.74a5.666,5.666,0,0,1,3.509,1.244,4.529,4.529,0,0,1-.317,7.445,5.519,5.519,0,0,1-6.144.174,4.6,4.6,0,0,1-2.333-4.675,5.02,5.02,0,0,1,3.885-3.988c.458-.1.933-.135,1.4-.2" transform="translate(-212.757 -89.88)" fill="#ffa87f"/>
    <path id="Path_33913" data-name="Path 33913" d="M55.852,106.744a5.59,5.59,0,0,1,3.912,1.58,4.506,4.506,0,0,1-.073,6.624,5.7,5.7,0,0,1-7.466.157,4.341,4.341,0,0,1-1.54-4.551,4.868,4.868,0,0,1,3.768-3.6,11.256,11.256,0,0,1,1.4-.206" transform="translate(-42.556 -89.884)" fill="#ffa87f"/>
  </g>
</svg>
