<svg xmlns="http://www.w3.org/2000/svg" width="23.328" height="33.428" viewBox="0 0 23.328 33.428">
  <g id="Group_15808" data-name="Group 15808" transform="translate(-908.336 -696.285)">
    <g id="noun-man-traveller-1167981" transform="translate(734.191 668.289)">
      <path id="Path_13108" data-name="Path 13108" d="M187.491,28a3.042,3.042,0,1,0,3.056,3.042A3.045,3.045,0,0,0,187.491,28ZM180,33.985a4.954,4.954,0,0,0-4.29,3.828l-.382,1.429L174.3,43.086c-.476,1.709.162,2,2.078,2.512s2.613.582,3.055-1.136l2.049-7.65c.517-1.928-.3-2.809-1.479-2.826Zm5.557.627a3.185,3.185,0,0,0-2.954,2.4l-2.285,8.53a3.184,3.184,0,0,0,.646,2.965c-.053,2.665-.387,3.961-1,4.982-.746,1.239-2.268,2.454-4.727,5.01a1.706,1.706,0,1,0,2.46,2.365c2.316-2.408,3.983-3.612,5.19-5.615a11.866,11.866,0,0,0,1.463-5.79,3.185,3.185,0,0,0,2.123-2.268l1.81-6.752a6.822,6.822,0,0,0,2.586,1.969,10.178,10.178,0,0,0,3.951.353L192.93,60.583a.683.683,0,1,0,1.358.143l1.9-17.984h.086a1.194,1.194,0,0,0,.165-2.378l.1-.949a.682.682,0,1,0-1.357-.144l-.115,1.084a12.822,12.822,0,0,1-3.357-.18c-2.683-1.028-2.592-4.588-5.079-5.423a3.188,3.188,0,0,0-.8-.139c-.095,0-.189,0-.282,0Zm1.589,13.4a4.112,4.112,0,0,1-2.532,2.313,8.937,8.937,0,0,1,1.72,2.592c.4,1.115.368,2.809.6,6.857a1.706,1.706,0,1,0,3.406-.195c-.225-3.942-.08-5.812-.793-7.809a11.855,11.855,0,0,0-2.4-3.758Z" transform="translate(0 0)" fill="#fff" fill-rule="evenodd"/>
    </g>
  </g>
</svg>
