<svg xmlns="http://www.w3.org/2000/svg" xmlns:xlink="http://www.w3.org/1999/xlink" width="26.363" height="26.481" viewBox="0 0 26.363 26.481">
  <defs>
    <linearGradient id="linear-gradient" x1="0.501" y1="1" x2="0.501" y2="0.002" gradientUnits="objectBoundingBox">
      <stop offset="0" stop-color="#f9f9f9"/>
      <stop offset="1" stop-color="#fff"/>
    </linearGradient>
  </defs>
  <g id="WhatsApp-Logo.wine" transform="translate(-31.41 -25.01)">
    <path id="Path_38788" data-name="Path 38788" d="M.183-530.111a12.644,12.644,0,0,0,1.692,6.333l-1.8,6.564,6.717-1.761a12.669,12.669,0,0,0,6.055,1.542h.006A12.688,12.688,0,0,0,25.527-530.1a12.588,12.588,0,0,0-3.708-8.962,12.592,12.592,0,0,0-8.964-3.715A12.687,12.687,0,0,0,.183-530.111" transform="translate(31.79 568.247)" fill="#32d951"/>
    <path id="Path_38789" data-name="Path 38789" d="M.182-548.706a13.1,13.1,0,0,0,1.752,6.56l-1.862,6.8,6.958-1.825a13.116,13.116,0,0,0,6.272,1.6h.006A13.144,13.144,0,0,0,26.435-548.7a13.042,13.042,0,0,0-3.841-9.284,13.045,13.045,0,0,0-9.285-3.848A13.142,13.142,0,0,0,.182-548.706Zm4.144,6.218-.26-.413A10.876,10.876,0,0,1,2.4-548.7a10.924,10.924,0,0,1,10.914-10.906,10.839,10.839,0,0,1,7.713,3.2,10.84,10.84,0,0,1,3.193,7.716,10.924,10.924,0,0,1-10.91,10.907h0a10.9,10.9,0,0,1-5.553-1.521l-.4-.236-4.129,1.083Z" transform="translate(31.338 586.837)" fill="url(#linear-gradient)"/>
    <path id="Path_38790" data-name="Path 38790" d="M174.218,175.186c-.246-.546-.5-.557-.738-.567-.191-.008-.41-.008-.629-.008a1.2,1.2,0,0,0-.875.41,3.677,3.677,0,0,0-1.148,2.735,6.38,6.38,0,0,0,1.339,3.392c.164.219,2.269,3.636,5.6,4.951,2.771,1.093,3.334.875,3.936.821a3.312,3.312,0,0,0,2.214-1.559,2.74,2.74,0,0,0,.191-1.559c-.082-.137-.3-.219-.629-.383s-1.94-.958-2.241-1.067-.519-.164-.738.164-.847,1.067-1.038,1.285-.383.246-.711.082a8.971,8.971,0,0,1-2.637-1.628,9.883,9.883,0,0,1-1.825-2.271c-.191-.328-.02-.506.144-.669.147-.147.328-.383.492-.574a2.248,2.248,0,0,0,.328-.547.6.6,0,0,0-.027-.575c-.082-.164-.719-1.786-1.011-2.434" transform="translate(-132.852 -142.54)" fill="#fff" fill-rule="evenodd"/>
  </g>
</svg>
