<svg xmlns="http://www.w3.org/2000/svg" xmlns:xlink="http://www.w3.org/1999/xlink" width="57" height="57" viewBox="0 0 57 57">
  <defs>
    <filter id="Ellipse_755" x="0" y="0" width="57" height="57" filterUnits="userSpaceOnUse">
      <feOffset input="SourceAlpha"/>
      <feGaussianBlur stdDeviation="3" result="blur"/>
      <feFlood flood-opacity="0.161"/>
      <feComposite operator="in" in2="blur"/>
      <feComposite in="SourceGraphic"/>
    </filter>
    <linearGradient id="linear-gradient" x1="0.501" y1="1" x2="0.501" y2="0.002" gradientUnits="objectBoundingBox">
      <stop offset="0" stop-color="#f9f9f9"/>
      <stop offset="1" stop-color="#fff"/>
    </linearGradient>
  </defs>
  <g id="Group_33768" data-name="Group 33768" transform="translate(13264.792 10219.792)">
    <g transform="matrix(1, 0, 0, 1, -13264.79, -10219.79)" filter="url(#Ellipse_755)">
      <circle id="Ellipse_755-2" data-name="Ellipse 755" cx="19.5" cy="19.5" r="19.5" transform="translate(9 9)" fill="#32d951"/>
    </g>
    <g id="Group_16419" data-name="Group 16419" transform="translate(-13247.395 -10202.494)">
      <path id="Path_38788" data-name="Path 38788" d="M.166-532.173a10.585,10.585,0,0,0,1.416,5.3l-1.505,5.5L5.7-522.851a10.606,10.606,0,0,0,5.069,1.291h0a10.622,10.622,0,0,0,10.608-10.605,10.538,10.538,0,0,0-3.1-7.5,10.541,10.541,0,0,0-7.5-3.11,10.622,10.622,0,0,0-10.609,10.6" transform="translate(0.306 543.162)" fill="#32d951"/>
      <path id="Path_38789" data-name="Path 38789" d="M.164-550.842a10.966,10.966,0,0,0,1.467,5.492L.072-539.658,5.9-541.185a10.979,10.979,0,0,0,5.251,1.337h0a11,11,0,0,0,10.989-10.985,10.919,10.919,0,0,0-3.216-7.772,10.92,10.92,0,0,0-7.773-3.222A11,11,0,0,0,.164-550.842Zm3.469,5.205-.217-.345a9.105,9.105,0,0,1-1.4-4.859,9.145,9.145,0,0,1,9.137-9.13,9.074,9.074,0,0,1,6.457,2.678,9.075,9.075,0,0,1,2.673,6.46,9.145,9.145,0,0,1-9.133,9.131h0A9.123,9.123,0,0,1,6.5-542.976l-.334-.2-3.457.906Z" transform="translate(-0.072 561.827)" fill="url(#linear-gradient)"/>
      <path id="Path_38790" data-name="Path 38790" d="M173.666,175.093c-.206-.457-.422-.466-.618-.474-.16-.007-.343-.006-.526-.006a1.008,1.008,0,0,0-.732.344,3.078,3.078,0,0,0-.961,2.29,5.341,5.341,0,0,0,1.121,2.84,11.271,11.271,0,0,0,4.69,4.144c2.319.915,2.791.733,3.295.687a2.773,2.773,0,0,0,1.853-1.305,2.294,2.294,0,0,0,.16-1.305c-.069-.114-.252-.183-.526-.32s-1.625-.8-1.876-.893-.435-.137-.618.138-.709.893-.869,1.076-.32.206-.595.069a7.51,7.51,0,0,1-2.208-1.363,8.275,8.275,0,0,1-1.528-1.9c-.16-.275-.017-.423.121-.56s.275-.32.412-.481a1.881,1.881,0,0,0,.274-.458.505.505,0,0,0-.023-.481c-.069-.137-.6-1.5-.846-2.038" transform="translate(-165.332 -168.7)" fill="#fff" fill-rule="evenodd"/>
    </g>
  </g>
</svg>
