<svg xmlns="http://www.w3.org/2000/svg" xmlns:xlink="http://www.w3.org/1999/xlink" width="73" height="73" viewBox="0 0 73 73">
  <defs>
    <filter id="Ellipse_755" x="0" y="0" width="73" height="73" filterUnits="userSpaceOnUse">
      <feOffset input="SourceAlpha"/>
      <feGaussianBlur stdDeviation="3" result="blur"/>
      <feFlood flood-opacity="0.161"/>
      <feComposite operator="in" in2="blur"/>
      <feComposite in="SourceGraphic"/>
    </filter>
    <linearGradient id="linear-gradient" x1="0.501" y1="1" x2="0.501" y2="0.002" gradientUnits="objectBoundingBox">
      <stop offset="0" stop-color="#f9f9f9"/>
      <stop offset="1" stop-color="#fff"/>
    </linearGradient>
  </defs>
  <g id="Group_16420" data-name="Group 16420" transform="translate(13264.868 10219.868)">
    <g transform="matrix(1, 0, 0, 1, -13264.87, -10219.87)" filter="url(#Ellipse_755)">
      <circle id="Ellipse_755-2" data-name="Ellipse 755" cx="27.5" cy="27.5" r="27.5" transform="translate(9 9)" fill="#32d951"/>
    </g>
    <g id="Group_16419" data-name="Group 16419" transform="translate(-13243.888 -10199.026)">
      <path id="Path_38788" data-name="Path 38788" d="M.2-527.956a14.8,14.8,0,0,0,1.98,7.41l-2.1,7.681,7.861-2.061a14.825,14.825,0,0,0,7.086,1.8h.007a14.847,14.847,0,0,0,14.827-14.823,14.73,14.73,0,0,0-4.339-10.487,14.734,14.734,0,0,0-10.489-4.347A14.846,14.846,0,0,0,.2-527.956" transform="translate(0.458 543.315)" fill="#32d951"/>
      <path id="Path_38789" data-name="Path 38789" d="M.2-546.473a15.327,15.327,0,0,0,2.05,7.677L.072-530.84l8.143-2.135a15.347,15.347,0,0,0,7.34,1.869h.007a15.38,15.38,0,0,0,15.36-15.355,15.262,15.262,0,0,0-4.495-10.863,15.264,15.264,0,0,0-10.865-4.5A15.379,15.379,0,0,0,.2-546.473ZM5.05-539.2l-.3-.483a12.727,12.727,0,0,1-1.952-6.792,12.783,12.783,0,0,1,12.771-12.761,12.683,12.683,0,0,1,9.026,3.743,12.684,12.684,0,0,1,3.736,9.029A12.783,12.783,0,0,1,15.561-533.7h0a12.751,12.751,0,0,1-6.5-1.779l-.466-.276L3.76-534.488Z" transform="translate(-0.072 561.827)" fill="url(#linear-gradient)"/>
      <path id="Path_38790" data-name="Path 38790" d="M174.795,175.284c-.287-.639-.59-.652-.864-.663-.224-.01-.48-.009-.735-.009a1.41,1.41,0,0,0-1.023.48,4.3,4.3,0,0,0-1.343,3.2,7.465,7.465,0,0,0,1.567,3.969c.192.256,2.655,4.255,6.556,5.793,3.242,1.278,3.9,1.024,4.605.96a3.876,3.876,0,0,0,2.59-1.824,3.207,3.207,0,0,0,.224-1.825c-.1-.16-.352-.256-.736-.448s-2.271-1.121-2.623-1.248-.608-.192-.864.192-.991,1.248-1.215,1.5-.448.288-.832.1a10.5,10.5,0,0,1-3.086-1.9,11.565,11.565,0,0,1-2.135-2.658c-.224-.384-.024-.592.169-.783.172-.172.384-.448.576-.672a2.629,2.629,0,0,0,.383-.64.707.707,0,0,0-.032-.672c-.1-.192-.842-2.09-1.183-2.849" transform="translate(-163.145 -166.349)" fill="#fff" fill-rule="evenodd"/>
    </g>
  </g>
</svg>
