<svg xmlns="http://www.w3.org/2000/svg" width="20.014" height="22.654" data-name="White Logo invisit"><defs><linearGradient id="a" x1=".444" x2=".52" y1="-.408" y2=".589" gradientUnits="objectBoundingBox"><stop offset="0" stop-color="#fa5543"/><stop offset="1" stop-color="#ff8f60"/></linearGradient></defs><path d="M.048 9.524H4.19V22.65H.048Z" data-name="Path 54209"/><path d="M6.68 9.524h3.379l.3 1.95h.129a9.8 9.8 0 0 1 2.254-1.675 5.44 5.44 0 0 1 2.617-.638 4 4 0 0 1 3.5 1.583 7.4 7.4 0 0 1 1.157 4.476v7.434h-4.173v-6.922a4.14 4.14 0 0 0-.488-2.345 1.71 1.71 0 0 0-1.522-.672 2.94 2.94 0 0 0-1.491.366 8 8 0 0 0-1.522 1.216v8.347H6.682V9.524Z" data-name="Path 54210"/><path fill="url(#a)" d="M3.1 4.635 0 3.965 6.7 0 4.187 7.5" data-name="Path 54211"/></svg>