<svg xmlns="http://www.w3.org/2000/svg" xmlns:xlink="http://www.w3.org/1999/xlink" width="120.678" height="37.273" data-name="Black logo invisit"><defs><linearGradient id="a" x1=".444" x2=".52" y1="-.408" y2=".589" gradientUnits="objectBoundingBox"><stop offset="0" stop-color="#fa5543"/><stop offset="1" stop-color="#ff8f60"/></linearGradient><linearGradient xlink:href="#a" id="b" x1="0" x2="1" y1=".5" y2=".5"/></defs><path d="M.079 15.664h6.813v21.589H.079Z" data-name="Path 54209"/><path d="M10.987 15.663h5.558l.5 3.208h.2a16 16 0 0 1 3.707-2.756 8.95 8.95 0 0 1 4.3-1.049 6.59 6.59 0 0 1 5.758 2.6q1.9 2.551 1.9 7.362v12.23h-6.86V25.877a6.8 6.8 0 0 0-.8-3.857 2.81 2.81 0 0 0-2.5-1.1 4.84 4.84 0 0 0-2.453.6 13.4 13.4 0 0 0-2.5 2v13.724h-6.803V15.663h-.01Z" data-name="Path 54210"/><path fill="url(#a)" d="M5.1 7.623 0 6.522 11.019 0 6.886 12.341" data-name="Path 54211"/><path fill="url(#b)" d="M117.72 24.319h6.912l2.85 8.6 2.562 7.867h.2l2.609-7.867 2.847-8.6h6.563l-8.214 21.627h-7.864Zm27.623 21.627h6.815V24.319h-6.815Zm-.435-29.891a3.775 3.775 0 1 0 3.775-3.775 3.774 3.774 0 0 0-3.775 3.775m30.863 0a3.775 3.775 0 1 0 3.775-3.775 3.774 3.774 0 0 0-3.775 3.775m22.679 29.876q-4.305 0-6.31-2.456a10.9 10.9 0 0 1-2-6.959v-7.535h-3.455v-5.109l3.807-.3.8-6.61h5.658v6.61h6.06v5.411h-6.06v7.477q0 4.054 3.3 4.06a7.5 7.5 0 0 0 2.456-.5l1.1 5.012a17 17 0 0 1-5.361.9ZM170.478 35.1a12.2 12.2 0 0 0-4.089-2.324 59 59 0 0 0-1.369-.485 9 9 0 0 1-1.716-.778 1.01 1.01 0 0 1-.567-.89 1.04 1.04 0 0 1 .4-.875 2.6 2.6 0 0 1 1.563-.376 7.1 7.1 0 0 1 3.919 1.578l.4.285 3.008-4.042-.385-.3a11.3 11.3 0 0 0-7.1-2.57 8.55 8.55 0 0 0-5.682 1.821 5.9 5.9 0 0 0-2.212 4.759 5.08 5.08 0 0 0 1.642 3.913 13.6 13.6 0 0 0 4 2.312q1.027.41 1.983.831a4.6 4.6 0 0 1 1.369.787.95.95 0 0 1 .382.737 1.2 1.2 0 0 1-.461 1.022 3.1 3.1 0 0 1-1.739.388 6.4 6.4 0 0 1-2.388-.476 11.7 11.7 0 0 1-2.512-1.525l-.408-.314-3.041 4.216.364.3a13 13 0 0 0 3.681 2.068 12.1 12.1 0 0 0 4.148.787 10.5 10.5 0 0 0 4.5-.884 6.83 6.83 0 0 0 2.908-2.4 6.2 6.2 0 0 0 1.037-3.5 5.1 5.1 0 0 0-1.63-4.063Zm5.69 10.843h6.815V24.319h-6.815Z" data-name="Path 54212" transform="translate(-83.137 -8.673)"/></svg>