<svg xmlns="http://www.w3.org/2000/svg" width="1920" height="51" data-name="Group 33819"><defs><clipPath id="a"><path fill="#fff" d="M0 0h1920v51H0z" data-name="Rectangle 25509"/></clipPath></defs><path fill="#fa5543" d="M0 0h1920v51H0z" data-name="Rectangle 25510"/><g clip-path="url(#a)" data-name="Mask Group 660"><g fill="#fff" data-name="Group 33789" opacity=".339"><path d="m1195.48 8.845 23.825-2.735 8.619.328Z" data-name="Path 3374"/><path d="m1360.516 40.175 31.238.583 9.74 1.233Z" data-name="Path 3375"/><path d="m833.966 64-22.454 6.565-.154 1.255Z" data-name="Path 3376"/><path d="M896.02-32.625 882.838-44.55l1.91-2.393Z" data-name="Path 3377"/><path d="m1267.429 140.512 30.651 12.54 9.81 3.837Z" data-name="Path 3378"/><path d="m1095.989-39.375 16.619-10.375 7.1-1.532Z" data-name="Path 3379"/><path d="m768.435 74.751-36.115 9.478-2.925 1.569Z" data-name="Path 3380"/><path d="m1134.372 38.179-1.6-.2-3.758-.186Z" data-name="Path 3381"/><path d="m1351.113 54.525 19.446 1.207 6.05.938Z" data-name="Path 3382"/><path d="m715.177-37.622-9.451-2.61-1.04-.74Z" data-name="Path 3383"/><path d="m977.611 164.549.346 9.258 1.806 2.265Z" data-name="Path 3384"/><path d="m607.258-118.975-97.371-43.717-12.383-10.541Z" data-name="Path 3385"/><path d="m917.805-26.517-8.583-10.173 1.937-2.044Z" data-name="Path 3387"/><path d="m921.989 90.931-11.049 16.573 2.577 3.654Z" data-name="Path 3388"/><path d="m1040.744-37.306 13.739-14.388 7.034-2.389Z" data-name="Path 3389"/><path d="m1225.859-50.884 75.749-27.435 21.688-3.328Z" data-name="Path 3390"/><path d="m1183.381 197.398 13.119 11.416 4.6 3.067Z" data-name="Path 3391"/><path d="m679.771 46.907-49.361 3.915-6.533.06Z" data-name="Path 3392"/><path d="m634.663-27.714-21.022-3.708-3.062-1.212Z" data-name="Path 3393"/><path d="m988.737-185.824 1.371-18.646 2.344-4Z" data-name="Path 3394"/><path d="m669.284-113.604-98.7-52.272-12.474-12.167Z" data-name="Path 3395"/><path d="m1177.331 99.909 14.567 5.379 4.948 1.71Z" data-name="Path 3396"/><path d="m619.255 143.827-22.087 8.232-3.348 1.5Z" data-name="Path 3397"/><path d="m1149.686-87.015 30.6-22.349 10.274-3.815Z" data-name="Path 3398"/><path d="m596.421-3.979-75.539-6.682-11.329-2.788Z" data-name="Path 3399"/><path d="m1078.933-42.042 18.739-13.648 7.43-2.246Z" data-name="Path 3400"/><path d="m622.326 148.677-115.1 46.412-16.229 7.449Z" data-name="Path 3401"/><path d="m1000.859-22.118 11.274-19.3 7.843-3.218Z" data-name="Path 3402"/><path d="m732.636-223.764-24.3-28.471-2.757-6.763Z" data-name="Path 3403"/><path d="m835.903-108.061-44.417-52.021-3.015-11.128Z" data-name="Path 3404"/><path d="m1337.327 128.799 50.6 14.8 14.257 4.785Z" data-name="Path 3405"/><path d="m476.244 231.947-57.481 26.94-9.519 4.827Z" data-name="Path 3406"/><path d="m1185.851 175.421 4.43 3.275 1.5.909Z" data-name="Path 3407"/><path d="m1082.029 78.025 15.55 7.327 5.965 2.179Z" data-name="Path 3408"/><path d="m1094.803 194.285 44.633 65.613 15.119 14.966Z" data-name="Path 3409"/><path d="m516.976-177.646-15.833-7.794-2.66-2.131Z" data-name="Path 3410"/><path d="m1060.35 290.838 4.982 15.979 2.448 3.9Z" data-name="Path 3411"/><path d="m949.082-11.821-9.735-28.868 5.432-5.154Z" data-name="Path 3412"/><path d="m771.245 45.237-43.379 4.494-5.475.4Z" data-name="Path 3413"/><path d="m799.32 21.488-63.665-2.541-7.313-1.311Z" data-name="Path 3414"/><path d="m1088.738-189.523 6.223-12.728 2.6-2.682Z" data-name="Path 3415"/><path d="m945.274 106.092-5.125 20.92 2.76 4.73Z" data-name="Path 3416"/><path d="m1344.481-193.437 94.851-64.846 26.031-11.117Z" data-name="Path 3417"/><path d="m877.337 140.966-42.169 61.889-1.817 12.3Z" data-name="Path 3418"/><path d="m550.852-93.148-145.841-47.029-22.992-12.561Z" data-name="Path 3419"/><path d="m1297.814 212.591 98.04 61.075 26.152 15.734Z" data-name="Path 3420"/><path d="m853.381 290.161-40.793 109.47-1.628 22.665Z" data-name="Path 3421"/><path d="m1244.876-117.463 134.1-82.823 35-13.207Z" data-name="Path 3422"/><path d="m1386.723-253.999 71.354-55.438 20.067-10.159Z" data-name="Path 3423"/><path d="M653.535 13.744 540.45 8.707l-17.888-3.015Z" data-name="Path 3424"/><path d="m701.808-28.895-92.363-21.933-14-6.158Z" data-name="Path 3425"/><path d="m433.646 21.949-34.612-.122-6.371-.752Z" data-name="Path 3426"/><path d="m1151.586 402.035 11.24 25.975 4.1 6.377Z" data-name="Path 3427"/><path d="m576.416 292.326-90.518 72.112-14.512 14.022Z" data-name="Path 3428"/><path d="m1292.027 125.401 69.6 22.572 18.669 6.823Z" data-name="Path 3429"/><path d="m1345.167 67.367 169.2 18.057 41.754 8.231Z" data-name="Path 3430"/><path d="m821.911 11.874.434.052-.484-.07Z" data-name="Path 3431"/><path d="m1034.646-95.702 3.241-6.623 1.552-1.391Z" data-name="Path 3432"/><path d="m684.318 224.42-92.923 74.211-14.1 14.4Z" data-name="Path 3433"/><path d="m1114.025-274.317 29.22-71.035 10.671-14.621Z" data-name="Path 3434"/><path d="m914.401-252.329-9.351-54.754 1.35-12.147Z" data-name="Path 3435"/><path d="m1231.787-105.21 50.166-29.05 14.257-4.974Z" data-name="Path 3436"/><path d="m868.792-193.321-21.964-55.748-1.007-12.479Z" data-name="Path 3437"/><path d="m633.632 141.953-169.681 68.588-27.448 11.174Z" data-name="Path 3438"/><path d="m661.34-310.07-27.543-34.207-4.086-8.364Z" data-name="Path 3439"/><path d="m1291.019 219.765.189.119-.862-.544Z" data-name="Path 3440"/><path d="m951.397 267.816-3.38 62.608 3.017 14.116Z" data-name="Path 3441"/><path d="m1405.499 220.978 143.121 70.155 36.289 19.148Z" data-name="Path 3442"/><path d="m1192.234-4.131 105.953-18.437 27.41-1.128Z" data-name="Path 3443"/><path d="m785.109-114.105-90.327-85.319-11.372-18.772Z" data-name="Path 3444"/><path d="m396.315-469.923 54.54 51.581-51-51.581Z" data-name="Path 3445"/><path d="m1194.264-109.514 55.666-38.547 15.619-6.933Z" data-name="Path 3446"/><path d="m1076.971 502.199 1.849 4.55h2.857l-24.772-101.047Z" data-name="Path 3447"/><path d="m1354.903 101.774 72.215 14.476 18.7 5.146Z" data-name="Path 3448"/><path d="M749.128 166.798 591.175 288.685l-24.871 22.938Z" data-name="Path 3449"/><path d="m1371.254-88.796 192.494-66.5 48.012-9.052Z" data-name="Path 3450"/><path d="m427.573 374.707-39.168 28.812-7.4 5.865Z" data-name="Path 3451"/><path d="m861.118 96.922-126.99 106.822-17.31 20.02Z" data-name="Path 3452"/><path d="m1293.549-469.923-48.017 82.09 52.021-82.09Z" data-name="Path 3453"/><path d="m1092.132 186.888 79.49 114.534 22.67 25.966Z" data-name="Path 3454"/><path d="m715.258 373.68-57.283 89.627-8.475 19.362Z" data-name="Path 3455"/><path d="m454.715-114.015-159.144-49.68-29.205-14.333Z" data-name="Path 3456"/><path d="m804.24 28.229-89.236.621-14.41-1.171Z" data-name="Path 3457"/><path d="m1339.943 398.227 16.48 18.282 4.655 4.713Z" data-name="Path 3458"/><path d="m556.754-296.328-55.133-49.3-9.588-12.457Z" data-name="Path 3459"/><path d="m1412.559-77.931 114.71-32.249 29.411-4.037Z" data-name="Path 3460"/><path d="m1041.469-207.775 47.477-178.18 18.326-36Z" data-name="Path 3461"/><path d="m603.737 506.75.019-.028Z" data-name="Path 3462"/><path d="m1327.397-257.425 45.477-44.267 12.912-8.778Z" data-name="Path 3463"/><path d="m915.622 145.1-21.633 60.639-.593 13.237Z" data-name="Path 3464"/><path d="m425.175 28.5-53.378.55-10.647-1.021Z" data-name="Path 3465"/><path d="m1228.192 192.991 103.953 73.345 26.652 18.5Z" data-name="Path 3466"/><path d="m1200.051-150.676 63.441-55.584 17.618-10.58Z" data-name="Path 3467"/><path d="M998.419 506.75h1.612l-4.173-45.687Z" data-name="Path 3468"/><path d="m1352.008 158.623 3.707 1.336.982.407Z" data-name="Path 3469"/><path d="m883.116 240.384-34.179 107.111-2.344 23.547Z" data-name="Path 3470"/><path d="m772.071-469.923 1.213 8.032 50.568 140.51-47.7-148.542Z" data-name="Path 3471"/><path d="m1435.242 304.77 20.618 13.24 5.414 3.632Z" data-name="Path 3472"/><path d="m966.082 482.065 4.75 24.685h.45l-4.991-146.035Z" data-name="Path 3473"/><path d="m1159.477 46.74 214.336 22.049 50.58 9.634Z" data-name="Path 3474"/><path d="m1592.784-469.923-104.667 93.668 111.6-93.668Z" data-name="Path 3475"/><path d="M381.132 386.739 263.591 470.71l-22.484 16.443Z" data-name="Path 3476"/><path d="m651.217-67.234-116.331-39.39-21.886-11.2Z" data-name="Path 3477"/><path d="m1116.158-79.92 62.975-51.666 17.343-9.676Z" data-name="Path 3478"/><path d="M767.92 46.682 622.026 64.013l-26.745 1.312Z" data-name="Path 3479"/><path d="M1288.08 506.75h4.294l-131.813-206.717Z" data-name="Path 3480"/><path d="M531.775-224.712 372.484-333.226l-28.941-27.712Z" data-name="Path 3481"/><path d="m1004.66-234.725 16.044-127.641 9.109-27.638Z" data-name="Path 3482"/><path d="M1215.286 506.75h.766l-16.569-33.477Z" data-name="Path 3483"/><path d="m309.028-469.923 14.819 16.986 178.488 146.21-187.843-163.2Z" data-name="Path 3484"/><path d="m684.122 495.252-4.341 11.5h1.629l59.944-116.212Z" data-name="Path 3485"/><path d="m1450.578-119.537 57.182-20.187 14.86-3.055Z" data-name="Path 3486"/><path d="M1346.286-253.106 1468.237-360.8l32.927-20.9Z" data-name="Path 3487"/><path d="m944.031 261.011.114.959.209-4.979Z" data-name="Path 3488"/><path d="m671.484-414.121-7.068-11.64-1.136-2.9Z" data-name="Path 3489"/><path d="m544.887 25.665-207.754.564-41.593-4.355Z" data-name="Path 3490"/><path d="m720.245-233.942-69.609-80.372-12.1-19.969Z" data-name="Path 3491"/><path d="M855.105 215.13 752.924 435.515l-14.24 48.111Z" data-name="Path 3492"/><path d="M912.027 80.436 771.318 325.517l-19.6 50.448Z" data-name="Path 3493"/><path d="M945.373-9.305 894.63-201.724l-2.869-41.976Z" data-name="Path 3494"/><path d="m274.895 506.749 13.147-10.295Z" data-name="Path 3495"/><path d="M1562.001-469.923 1425.615-342.24l144.737-127.683Z" data-name="Path 3496"/><path d="M848.845 143.171 714.626 314.288l-23.752 36.91Z" data-name="Path 3497"/><path d="M592.751-44.016 416.917-81.704l-36-12.638Z" data-name="Path 3498"/><path d="M887.465-16.961 767.64-109.417l-21.666-23.059Z" data-name="Path 3499"/><path d="m985.271-212.137 7.639-105.187 5.848-23.773Z" data-name="Path 3500"/><path d="m1421.078-469.923-19.652 24.2 20.88-24.2Z" data-name="Path 3501"/><path d="m1107.227-162.375 8.344-12.4 2.483-2.639Z" data-name="Path 3502"/><path d="m1069.838 94.393 140.844 104.327 33.927 26.023Z" data-name="Path 3503"/><path d="M706.864 261.3 585.575 394.4l-24.4 29.283Z" data-name="Path 3504"/><path d="m1428.701 181.451 293.051 112.174 71.612 33.729Z" data-name="Path 3505"/><path d="m1282.819-96.85 214.75-101.764 54.666-17.248Z" data-name="Path 3506"/><path d="m1503.796 140.136 14.533 3.155 3.551 1.123Z" data-name="Path 3507"/><path d="m1500.155 311.834 89.058 53.595 21.979 14.852Z" data-name="Path 3508"/><path d="m1072.039 51.388 311.44 96.256 71.694 29.688Z" data-name="Path 3509"/><path d="m1376.564-469.923-107.642 145.33 114.342-145.33Z" data-name="Path 3510"/><path d="M1113.228 506.749h.9l-12.055-39.912Z" data-name="Path 3511"/><path d="m1434.502 397.346 61.286 53.59 15.274 14.077Z" data-name="Path 3512"/><path d="m1317.838-16.636-2.845.431 3.552-.452Z" data-name="Path 3513"/><path d="m914.994-469.923 20.672 228.5-13.9-228.5Z" data-name="Path 3514"/><path d="m406.692 44.377-166.546 7.378-36.755-2.288Z" data-name="Path 3515"/><path d="m1228.931-45.775 216.2-73.767 54.441-10.933Z" data-name="Path 3516"/><path d="m846.017-147.99-92.913-175.627-15.257-43.738Z" data-name="Path 3517"/><path d="m777.789 77.473-281.531 99.655-63.951 17.579Z" data-name="Path 3518"/><path d="m920.828-469.923 2.374 27.818-1.559-27.818Z" data-name="Path 3519"/><path d="m546.077 190.525-153.46 70.328-34.967 13.426Z" data-name="Path 3520"/><path d="m393.796-469.923 22.749 28.567L589.052-279.18 396.823-469.926Z" data-name="Path 3521"/><path d="m835.932-469.923 3.851 16.02-3.368-16.02Z" data-name="Path 3522"/><path d="m1059.022 156.731 133.845 234.876 35.031 57.624Z" data-name="Path 3523"/><path d="m1551.91 19.654 180.358-5.28 44.857 3.839Z" data-name="Path 3524"/><path d="M852.525 35.558 503.834 74.586l-84.217.393Z" data-name="Path 3525"/><path d="M472.092-221.071 269.638-343.149l-43.116-34.707Z" data-name="Path 3526"/><path d="M994.931 506.75h1.25l-3.837-47.76Z" data-name="Path 3527"/><path d="M870.571 506.749h9.829l50.562-345.935Z" data-name="Path 3528"/><path d="m1064.861 130.122 62.147 68.554 13.309 17.508Z" data-name="Path 3529"/><path d="m1377.012-469.923-38.587 39.57-158.981 217.4 199.214-256.973Z" data-name="Path 3530"/><path d="m707.059-138.188-41.309-29.624-8.823-8.418Z" data-name="Path 3531"/><path d="M829.602 7.753 464.064-54.08l-92.607-28.4Z" data-name="Path 3532"/><path d="m1211.996-252.826 19.118-26.64 5.431-5.658Z" data-name="Path 3533"/><path d="m1666.804-469.923-84.554 68.4 89.322-68.4Z" data-name="Path 3534"/><path d="m893.976 75.873-207.3 291.677-53.309 73.829Z" data-name="Path 3535"/><path d="m6-334.897 68.927 37.192 378.486 145.6L6-337.005Z" data-name="Path 3536"/><path d="M1247.065 506.75h.5l-84.623-154.539Z" data-name="Path 3537"/><path d="m381.665-469.923 92.246 85.76-87.537-85.76Z" data-name="Path 3538"/><path d="m1297.923 109.226 362.355 105.549 91.109 37.28Z" data-name="Path 3539"/><path d="m1018.204 265.553 7.507 34.6 2.073 7.9Z" data-name="Path 3540"/><path d="m1241.322 263.563 136.4 134.368 31.876 35.991Z" data-name="Path 3541"/><path d="m1055.147-86.652 78.56-116.869 24.359-26.205Z" data-name="Path 3542"/><path d="M1661.535-6.594 1711.046-10l12.084.634Z" data-name="Path 3543"/><path d="m1120.031-239.487 84.042-172.644 26.945-39.825Z" data-name="Path 3544"/><path d="M304.767 506.75h5.826l279.361-228.8Z" data-name="Path 3545"/><path d="m589.677-469.923 102.805 149.252-96.949-149.252Z" data-name="Path 3546"/><path d="m938.742-185.007-4.774-45.9.7-11.3Z" data-name="Path 3547"/><path d="M1646.107 506.75h5.857l-185.837-141.979Z" data-name="Path 3548"/><path d="m1259.551 133.978 282.6 117.2 70.439 39.74Z" data-name="Path 3549"/><path d="m536.33-228.245-128.921-82.728-29.072-24.7Z" data-name="Path 3550"/><path d="M916.224 506.749h2.624l6.168-93.021Z" data-name="Path 3551"/><path d="m502.659 149.497-371.748 124.82-98.585 21.994Z" data-name="Path 3552"/><path d="m1237.117 10.731 243.694-22.263 64.854 3.429Z" data-name="Path 3553"/><path d="m1081.903-469.923-1.512 4.059L1009.61-138.2l82.6-331.724Z" data-name="Path 3554"/><path d="m780.646 174.958-95.008 94.245-28.501 20.625Z" data-name="Path 3555"/><path d="M646.265-43.872 234.81-160.537l-108-46.269Z" data-name="Path 3556"/><path d="m468.222 28.546-96.569 1.477-23.766-2.786Z" data-name="Path 3557"/><path d="M804.889 126.508 507.237 414.754l-95.257 73.629Z" data-name="Path 3558"/><path d="m845.851 62.009-2.769.97-.522.059Z" data-name="Path 3559"/><path d="m904.54-469.923 22.63 205.472-16.585-205.472Z" data-name="Path 3560"/><path d="m355.607-315.905-104.216-66.85-23.147-19.458Z" data-name="Path 3561"/><path d="m1047.4-116.05 67.608-139.685 24.6-34.07Z" data-name="Path 3562"/><path d="M6 309.184v2.784l18.753-4.279 198.912-67.571Z" data-name="Path 3563"/><path d="m1775.486 11.897 98.712-3.515 24.255 2.079Z" data-name="Path 3564"/><path d="M391.392 506.75h3.293l98.065-93.2Z" data-name="Path 3565"/><path d="M6 238.115v9.074l15.01-2.161L433.457 137.41Z" data-name="Path 3566"/><path d="M1517.276 506.75h5.725l-148.063-136.554Z" data-name="Path 3567"/><path d="m1303.165-469.923-48.212 79.38 51.217-79.38Z" data-name="Path 3568"/><path d="M1925.999 301.1v-8.513l-331.629-96.858Z" data-name="Path 3569"/><path d="m746.676-254.03-108.72-163.758L615.681-465Z" data-name="Path 3570"/><path d="M862.902 506.749h1.08l8.458-49.3Z" data-name="Path 3571"/><path d="M801.05 506.749h.1l14.937-50.078Z" data-name="Path 3572"/><path d="M1085.77 506.749h6.792l-54.157-204.951Z" data-name="Path 3573"/><path d="m1324.654-263.617 164.394-159.239 48.839-35.818Z" data-name="Path 3574"/><path d="m1357.075 177.88 1.758.7.4.236Z" data-name="Path 3575"/><path d="m1144.259 24.293 240.057-11.759 73.526 9.014Z" data-name="Path 3576"/><path d="m183.563-139.55-33.972-7.718-7.861-2.875Z" data-name="Path 3577"/><path d="M1691.634-310.352 1926-431.877v-7.507Z" data-name="Path 3578"/><path d="m1091.903-45.555 254.78-240.435 92.885-62.941Z" data-name="Path 3579"/><path d="m659.174-169.108-44.956-31.829-9.583-9.694Z" data-name="Path 3580"/><path d="m601.535 238.941-228.759 170.85-69.464 38.764Z" data-name="Path 3581"/><path d="m6-458.617 193.932 106.976L6-464.841Z" data-name="Path 3582"/><path d="M710.461 506.753h.683l17.518-38.064Z" data-name="Path 3583"/><path d="M1413.122 506.75h3.818l-40.834-60.63-220.094-241.421Z" data-name="Path 3584"/><path d="M1423.35 506.749h1.38l-31.506-34.99Z" data-name="Path 3585"/><path d="m1129.904 54.691 79.094 12.3 24.341 8.089Z" data-name="Path 3586"/><path d="M1204.322 506.75h4.415l-3.006-9.123-74.836-152.778Z" data-name="Path 3587"/><path d="m513.002 132.577-160.756 45.972-43.859 5.7Z" data-name="Path 3588"/><path d="m977.772-469.923-4.5 205.876 11.486-205.876Z" data-name="Path 3589"/><path d="m442.595-219.751-119.3-62.522-28.081-20.156Z" data-name="Path 3590"/><path d="m1564.632-407.964 14.447-12.2 3.81-2.427Z" data-name="Path 3591"/><path d="m1677.156-190.578 113.693-41.012 29.616-6.5Z" data-name="Path 3592"/><path d="m6-198.729 9.93 3.872 513.631 129.3L6-214.07Z" data-name="Path 3593"/><path d="m6-129.056 9.341 1.579L6-129.284Z" data-name="Path 3594"/><path d="M870.573 71.111 685.249 283.206l-55.09 61.025Z" data-name="Path 3595"/><path d="m1153.723-251.864 15.584-28.705 5.275-6.344Z" data-name="Path 3596"/><path d="M627.531 153.798 186.655 397.43 30.848 458.002Z" data-name="Path 3597"/><path d="m1741.472 23.163 184.527.741v-4.672Z" data-name="Path 3598"/><path d="m1404.703 121.883 400.865 96.447 119.365 46.213Z" data-name="Path 3599"/><path d="m1636.451 122.16 104.832 14.814 25.842 7.392Z" data-name="Path 3600"/><path d="M6 135.236v6.265l23.514-.331 301.739-43.354Z" data-name="Path 3601"/><path d="M1926 303.716v-5.061l-188.319-55.918Z" data-name="Path 3602"/><path d="M128.683 506.749h21.229l329.527-220.978Z" data-name="Path 3603"/><path d="M1926 501.647v-4.322l-140.274-73.363Z" data-name="Path 3604"/><path d="M181.637 506.749h10.264l186.6-132.556Z" data-name="Path 3605"/><path d="m1012.781-65.989 67.966-173.943 42.046-55.272Z" data-name="Path 3606"/><path d="M686.642 506.75h2.479L813.77 262.583Z" data-name="Path 3607"/><path d="m1235.69 85.597 201.717 45.688 66.94 25.038Z" data-name="Path 3608"/><path d="m1499.894-.897 29.186-2.264 7.464.593Z" data-name="Path 3609"/><path d="m1014.317 139.103 5.322 14.02 3.567 3.947Z" data-name="Path 3610"/><path d="m603.515-469.923 10.134 15.116-9.459-15.116Z" data-name="Path 3611"/><path d="M1925.999 126.45v-1.059l-41.992-4.108Z" data-name="Path 3612"/><path d="m1863.596-404.565 62.4-32.585v-1.9Z" data-name="Path 3613"/><path d="M723.994 126.818 470.651 299.87l-80.032 45.684Z" data-name="Path 3614"/><path d="m880.648 108.95-27.412 29.167-1.159 6.866Z" data-name="Path 3615"/><path d="m6-248.117 197.08 60.529L6-253.844Z" data-name="Path 3616"/><path d="M1255.808 506.746h2.908l-126.515-220.9Z" data-name="Path 3617"/><path d="m194.078-469.923 27.026 25.395 390.189 274.485-394.608-299.88Z" data-name="Path 3618"/><path d="M315.718 506.75h8.66l197.571-167.055Z" data-name="Path 3619"/><path d="m1607.731-136.372 318.27-88.957v-10.025Z" data-name="Path 3620"/><path d="M919.443 506.75h1.391l2.033-35.879Z" data-name="Path 3621"/><path d="M6-96.375 132.61-62.66 604.202-8.639l-598.2-92.7Z" data-name="Path 3622"/><path d="m78.477-469.923 299.7 183.357L98.05-469.923Z" data-name="Path 3623"/><path d="M1921.034 506.75H1926v-4.8l-229.453-121.286Z" data-name="Path 3624"/><path d="m685.207 159.392-149.223 83.77-36.8 19.473Z" data-name="Path 3625"/><path d="m995.815-119.395 27.04-195.375 33.382-70.269Z" data-name="Path 3626"/><path d="m845.819-469.923 41.29 181.976-31.465-181.976Z" data-name="Path 3627"/><path d="m1114.364 171.085 43.857 48.327 19.825 16.06Z" data-name="Path 3628"/><path d="m722.604-469.923 11.627 56.146L837.652-199.08 727.321-469.918Z" data-name="Path 3629"/><path d="M1872.164-172.096 1399.876-53.862l526.123-111.146v-13.685Z" data-name="Path 3630"/><path d="m500.475 239.953-288.05 167.763-89.072 45.374Z" data-name="Path 3631"/><path d="M1926 296.407v-4.864l-190.872-55.225Z" data-name="Path 3632"/><path d="m350.984 80.809-242.243 27.44-67.432-.221Z" data-name="Path 3633"/><path d="m6-314.113 20.322 8L6-314.7Z" data-name="Path 3634"/><path d="m1156.074 104.468 271.674 169.029 168.755 98.59Z" data-name="Path 3635"/><path d="m1839.202-89.13-481.787 74.476 568.584-66.7v-11.912Z" data-name="Path 3636"/></g><g data-name="Group 33795"><path fill="#fff" d="M121.61 324.104c-23.823-41.577-1.083-40.793 61.625-16.523s22.428 78.224 89.414 18.162 217.627 24.132 116.771-60.156-237.985-3.091-180.032-80.81 186.939 27.186 135.548-57.917S298.55 7.888 206.662 62.527-70.58 244.576-96.907 282.875s11.597 112.942 136.95 125.579 211.546 25.555 154.48-27.658-49.091-15.12-72.913-56.692" data-name="Path 38835" opacity=".563"/><path fill="#ff0" d="M145.107 330.135c-23.823-41.577-1.083-40.793 61.625-16.523s22.428 78.224 89.414 18.162 217.627 24.132 116.771-60.156-237.985-3.091-180.032-80.81 186.939 27.186 135.548-57.917S322.047 13.92 230.159 68.558-47.083 250.607-73.41 288.906s11.597 112.942 136.95 125.579 211.546 25.555 154.48-27.658-49.091-15.12-72.913-56.692" data-name="Path 38839" opacity=".563"/></g><g data-name="Group 33796"><path fill="#fff" d="M59.61-84.896c-23.823-41.577-1.083-40.793 61.625-16.523s22.428 78.224 89.414 18.162 217.627 24.132 116.771-60.156-237.985-3.091-180.032-80.81 186.939 27.186 135.548-57.917-46.386-118.972-138.274-64.333-277.242 182.049-303.569 220.348S-147.31-13.183-21.957-.546s211.546 25.555 154.48-27.658-49.091-15.12-72.913-56.692" data-name="Path 38835" opacity=".563"/><path fill="#ff0" d="M83.107-78.865c-23.823-41.577-1.083-40.793 61.625-16.523s22.428 78.224 89.414 18.162 217.627 24.132 116.771-60.156-237.985-3.091-180.032-80.81 186.939 27.186 135.548-57.917-46.386-118.972-138.274-64.333-277.242 182.049-303.569 220.348S-123.813-7.152 1.54 5.485 213.086 31.04 156.02-22.173s-49.091-15.12-72.913-56.692" data-name="Path 38839" opacity=".563"/></g><g data-name="Group 33797"><path fill="#fff" d="M1638.61-84.896c-23.823-41.577-1.083-40.793 61.625-16.523s22.428 78.224 89.414 18.162 217.627 24.132 116.771-60.156-237.985-3.091-180.032-80.81 186.939 27.186 135.548-57.917-46.386-118.972-138.274-64.333-277.242 182.049-303.569 220.348S1431.69-13.183 1557.043-.546s211.546 25.555 154.48-27.658-49.091-15.12-72.913-56.692" data-name="Path 38835" opacity=".563"/><path fill="#ff0" d="M1662.107-78.865c-23.823-41.577-1.083-40.793 61.625-16.523s22.428 78.224 89.414 18.162 217.627 24.132 116.771-60.156-237.985-3.091-180.032-80.81 186.939 27.186 135.548-57.917-46.386-118.972-138.274-64.333-277.242 182.049-303.569 220.348S1455.187-7.152 1580.54 5.485s211.546 25.555 154.48-27.658-49.091-15.12-72.913-56.692" data-name="Path 38839" opacity=".563"/></g><g data-name="Group 33798"><path fill="#fff" d="M1704.61 309.674c-23.823-41.577-1.083-40.793 61.625-16.523s22.428 78.224 89.414 18.162 217.627 24.132 116.771-60.156-237.985-3.091-180.032-80.81 186.939 27.186 135.548-57.917-46.386-118.972-138.274-64.333-277.242 182.049-303.569 220.348 11.597 112.942 136.95 125.579 211.546 25.555 154.48-27.658-49.091-15.12-72.913-56.692" data-name="Path 38835" opacity=".563"/><path fill="#ff0" d="M1728.107 315.705c-23.823-41.577-1.083-40.793 61.625-16.523s22.428 78.224 89.414 18.162 217.627 24.132 116.771-60.156-237.985-3.091-180.032-80.81 186.939 27.186 135.548-57.917S1905.047-.51 1813.159 54.128s-277.242 182.049-303.569 220.348 11.597 112.942 136.95 125.579 211.546 25.555 154.48-27.658-49.091-15.12-72.913-56.692" data-name="Path 38839" opacity=".563"/></g></g></svg>