<svg xmlns="http://www.w3.org/2000/svg" width="54.998" height="54.999" viewBox="0 0 54.998 54.999">
  <path id="Subtraction_4" data-name="Subtraction 4" d="M16390.5-4008a27.321,27.321,0,0,1-10.7-2.161,27.407,27.407,0,0,1-8.741-5.893,27.4,27.4,0,0,1-5.893-8.741,27.326,27.326,0,0,1-2.161-10.7,27.328,27.328,0,0,1,2.161-10.7,27.4,27.4,0,0,1,5.893-8.741,27.407,27.407,0,0,1,8.741-5.894,27.321,27.321,0,0,1,10.7-2.161,27.334,27.334,0,0,1,10.705,2.161,27.4,27.4,0,0,1,8.74,5.894,27.392,27.392,0,0,1,5.893,8.741,27.332,27.332,0,0,1,2.162,10.7,27.33,27.33,0,0,1-2.162,10.7,27.4,27.4,0,0,1-5.893,8.741,27.394,27.394,0,0,1-8.74,5.893A27.334,27.334,0,0,1,16390.5-4008Zm.293-42.234a14.663,14.663,0,0,0-7.831,2.256,14.815,14.815,0,0,0-5.333,5.865,14.666,14.666,0,0,0-1.57,6.613,14.666,14.666,0,0,0,1.57,6.613,14.809,14.809,0,0,0,5.333,5.867,14.673,14.673,0,0,0,7.831,2.254,14.066,14.066,0,0,0,9.762-3.568,13.111,13.111,0,0,0,3.236-4.7,16.166,16.166,0,0,0,1.148-6.139,12.787,12.787,0,0,0-.311-3.012h-13.836v5.472h8.121a7.237,7.237,0,0,1-3.012,4.78,8.767,8.767,0,0,1-5.109,1.471,8.85,8.85,0,0,1-8.38-6.123,9,9,0,0,1-.5-2.913,9.449,9.449,0,0,1,.479-2.913,8.9,8.9,0,0,1,8.4-6.123,8.145,8.145,0,0,1,5.7,2.192l4.156-4.059A14.2,14.2,0,0,0,16390.793-4050.235Z" transform="translate(-16363.002 4063)"/>
</svg>
