<svg xmlns="http://www.w3.org/2000/svg" width="55" height="55" viewBox="0 0 55 55">
  <path id="Subtraction_1" data-name="Subtraction 1" d="M27.508,55A27.5,27.5,0,1,1,55,27.508,27.531,27.531,0,0,1,27.508,55ZM37.8,40.367c.755,0,1.51,0,2.269.012.272,0,.347-.074.347-.347V31.221a15.131,15.131,0,0,0-.446-4.125,4.783,4.783,0,0,0-3.432-3.6,8.874,8.874,0,0,0-2.475-.3,5.541,5.541,0,0,0-3.927,1.535c-.224.224-.428.469-.637.721-.126.151-.237.285-.353.417l0-.644c0-.428-.007-.857,0-1.286a.34.34,0,0,0-.058-.262.284.284,0,0,0-.219-.069l-4.393,0c-.243,0-.33.047-.33.314V40.066c0,.246.067.314.314.314.759-.008,1.522-.012,2.285-.012s1.526,0,2.285.012c.272,0,.347-.074.347-.347-.016-2.723-.016-5.429-.016-8.152a11.205,11.205,0,0,1,.083-1.3,2.8,2.8,0,0,1,2.954-2.805q.113-.007.222-.007a2.292,2.292,0,0,1,2.352,1.822,7.538,7.538,0,0,1,.248,2.079V40.05c0,.243.047.33.314.33C36.287,40.371,37.042,40.367,37.8,40.367Zm-20.231,0c.755,0,1.51,0,2.269.012.305,0,.38-.074.38-.38-.011-1.772-.007-3.551,0-5.327l0-2.659,0-2.676c0-1.787-.007-3.578,0-5.36,0-.247-.042-.365-.28-.365H15.281c-.23,0-.3.067-.3.3.017,5.38.017,10.776,0,16.155,0,.237.076.314.314.314C16.056,40.371,16.811,40.367,17.566,40.367Zm.041-25.747a3.02,3.02,0,1,0,3.02,3A3.031,3.031,0,0,0,17.607,14.62Z"/>
</svg>
